<?xml version="1.0" encoding="utf-8"?>
<!-- Generator: Adobe Illustrator 18.1.1, SVG Export Plug-In . SVG Version: 6.00 Build 0)  -->
<svg version="1.1" width="23" height="16" id="Layer_1" xmlns="http://www.w3.org/2000/svg" xmlns:xlink="http://www.w3.org/1999/xlink" x="0px" y="0px"
	 viewBox="-188 193 23 16" enable-background="new -188 193 23 16" xml:space="preserve">
<g>
	<g>
		<defs>
			
				<rect id="SVGID_1_" x="-181.2" y="192.4" transform="matrix(0.9649 0.2625 -0.2625 0.9649 46.5742 53.3818)" width="9.5" height="17.2"/>
		</defs>
		<clipPath id="SVGID_2_">
			<use xlink:href="#SVGID_1_"  overflow="visible"/>
		</clipPath>
		<path clip-path="url(#SVGID_2_)" fill="#233F95" d="M-175.5,201.8c-1.1,1.7-2.5,3.3-3.2,2.8c-1.1-0.7-1.8-1.4-3.5,0.6
			c-1.7,2,0.1,2.8,1.1,3.5c1.2,0.8,4.8-0.9,7.8-5.3c3-4.4,3.3-8.4,2-9.2c-1-0.7-2.4-2-3.6,0.3c-1.2,2.3-0.4,2.7,0.7,3.5
			C-173.3,198.3-174.4,200.2-175.5,201.8"/>
	</g>
</g>
</svg>
