<?xml version="1.0" encoding="utf-8"?>
<!-- Generator: Adobe Illustrator 15.1.0, SVG Export Plug-In  -->
<!DOCTYPE svg PUBLIC "-//W3C//DTD SVG 1.1//EN" "http://www.w3.org/Graphics/SVG/1.1/DTD/svg11.dtd" [
	<!ENTITY ns_flows "http://ns.adobe.com/Flows/1.0/">
]>
<svg version="1.1"
	 xmlns="http://www.w3.org/2000/svg" xmlns:xlink="http://www.w3.org/1999/xlink" xmlns:a="http://ns.adobe.com/AdobeSVGViewerExtensions/3.0/"
	 x="0px" y="0px" width="23px" height="16px" viewBox="-5.365 -0.683 23 16"
	 overflow="visible" enable-background="new -5.365 -0.683 23 16" xml:space="preserve">
<defs>
</defs>
<g>
	<defs>
		<rect id="SVGID_1_" width="17.26" height="15.358"/>
	</defs>
	<clipPath id="SVGID_2_">
		<use xlink:href="#SVGID_1_"  overflow="visible"/>
	</clipPath>
	<path clip-path="url(#SVGID_2_)" fill="#233F95" d="M11.715,11.316c0.527,0,0.977-0.449,0.977-0.995s-0.449-0.994-0.977-0.994
		c-0.545,0-0.994,0.448-0.994,0.994S11.17,11.316,11.715,11.316 M7.596,11.316c0.547,0,0.996-0.449,0.996-0.995
		S8.143,9.327,7.596,9.327s-0.977,0.448-0.977,0.994S7.049,11.316,7.596,11.316 M8.909,4.639H2.923V1.364h5.986V4.639z
		 M15.954,14.033H1.325V7.196h14.629V14.033z M0.877,5.831C0,5.831,0,6.201,0,7.45v6.875c0,1.033,0.331,1.033,1.403,1.033h14.961
		c0.817,0,0.896-0.312,0.896-0.896V6.825c0-0.937-0.252-0.994-1.09-0.994H9.299c0.799-0.508,0.936-0.742,0.936-2.051V2.693
		l6.056-1.388c0.41-0.097,0.606-0.233,0.606-0.604C16.896,0.195,16.604,0,16.23,0l-5.996,1.287V0.994
		c0-0.955-0.448-0.975-1.521-0.975H2.299c-0.566,0-0.702,0.352-0.702,1.131v2.767c0,1.055,0.351,1.504,1.248,1.914H0.877z"/>
</g>
</svg>
