<?xml version="1.0" encoding="utf-8"?>
<!-- Generator: Adobe Illustrator 18.1.1, SVG Export Plug-In . SVG Version: 6.00 Build 0)  -->
<svg version="1.1" id="Layer_1" xmlns="http://www.w3.org/2000/svg" xmlns:xlink="http://www.w3.org/1999/xlink" x="0px" y="0px"
	 viewBox="-188 193 23 16" enable-background="new -188 193 23 16" xml:space="preserve">
<g>
	<g>
		<defs>
			<rect id="SVGID_1_" x="-186" y="193" width="18.9" height="16"/>
		</defs>
		<clipPath id="SVGID_2_">
			<use xlink:href="#SVGID_1_"  overflow="visible"/>
		</clipPath>
		<path clip-path="url(#SVGID_2_)" fill="#233F95" d="M-167.2,196.7l-2.2-1.5c-0.2-0.1-0.3-0.1-0.5-0.2c-0.2-0.1-0.4-0.1-0.5-0.1
			h-6.5l0.8,4.1h5.7c0.2,0,0.3,0,0.5-0.1c0.2,0,0.3-0.1,0.5-0.2l2.2-1.5c0.1-0.1,0.2-0.2,0.2-0.3
			C-167,196.9-167.1,196.8-167.2,196.7L-167.2,196.7L-167.2,196.7z M-177.9,193h-0.9c-0.2,0-0.4,0.1-0.4,0.4v3.4h-3.3
			c-0.2,0-0.4,0-0.5,0.1c-0.2,0-0.4,0.1-0.5,0.2l-2.3,1.5c-0.1,0.1-0.2,0.2-0.2,0.3c0,0.1,0.1,0.2,0.2,0.3l2.3,1.5
			c0.1,0.1,0.3,0.2,0.5,0.2c0.2,0.1,0.4,0.1,0.5,0.1h3.3v7.8c0,0.2,0.2,0.4,0.4,0.4h0.9c0.2,0,0.4-0.2,0.4-0.4v-15.3
			C-177.5,193.1-177.7,193-177.9,193"/>
	</g>
</g>
</svg>
