<?xml version="1.0" encoding="utf-8"?>
<!-- Generator: Adobe Illustrator 18.1.1, SVG Export Plug-In . SVG Version: 6.00 Build 0)  -->
<svg version="1.1" width="23" height="16" id="Layer_1" xmlns="http://www.w3.org/2000/svg" xmlns:xlink="http://www.w3.org/1999/xlink" x="0px" y="0px"
	 viewBox="-188 193 23 16" enable-background="new -188 193 23 16" xml:space="preserve">
<g>
	<g>
		<defs>
			<rect id="SVGID_1_" x="-185.5" y="193" width="18" height="14.8"/>
		</defs>
		<clipPath id="SVGID_2_">
			<use xlink:href="#SVGID_1_"  overflow="visible"/>
		</clipPath>
		<path clip-path="url(#SVGID_2_)" fill="#233F95" d="M-167.5,198.3c0-0.2-0.2-0.4-0.4-0.4h-5.1c1.4,0,2.6-1.1,2.6-2.5
			c0-1.4-1.2-2.5-2.6-2.5c-0.8,0-1.5,0.3-2,0.8l-1.5,1.8l-1.5-1.8c-0.5-0.5-1.2-0.8-2-0.8c-1.5,0-2.6,1.1-2.6,2.5
			c0,1.4,1.2,2.5,2.6,2.5h-5.1c-0.2,0-0.4,0.2-0.4,0.4v3.5c0,0.2,0.2,0.4,0.4,0.4h1.1v4.6c0,0.6,0.5,1.1,1.1,1.1h12.7
			c0.6,0,1.1-0.5,1.1-1.1v-4.6h1.1c0.2,0,0.4-0.2,0.4-0.4L-167.5,198.3L-167.5,198.3z M-171.9,195.5c0,0.6-0.5,1.1-1.1,1.1h-2.3
			l1.5-1.8c0.1-0.1,0.4-0.3,0.8-0.3C-172.4,194.4-171.9,194.9-171.9,195.5 M-180,196.5c-0.6,0-1.1-0.5-1.1-1.1s0.5-1.1,1.1-1.1
			c0.4,0,0.7,0.2,0.8,0.3l1.5,1.8H-180z M-174.6,205.8c0,0.4-0.3,0.6-0.7,0.6h-2.2c-0.4,0-0.7-0.2-0.7-0.6v-0.6V200v-2.1h3.7v2.1
			v5.1V205.8z"/>
	</g>
</g>
</svg>
