<?xml version="1.0" encoding="utf-8"?>
<!-- Generator: Adobe Illustrator 18.1.1, SVG Export Plug-In . SVG Version: 6.00 Build 0)  -->
<svg version="1.1" id="Layer_1" xmlns="http://www.w3.org/2000/svg" xmlns:xlink="http://www.w3.org/1999/xlink" x="0px" y="0px"
	 viewBox="-188 193 23 16" enable-background="new -188 193 23 16" xml:space="preserve">
<g>
	<g>
		<defs>
			<rect id="SVGID_1_" x="-181.9" y="193" width="10.7" height="16"/>
		</defs>
		<clipPath id="SVGID_2_">
			<use xlink:href="#SVGID_1_"  overflow="visible"/>
		</clipPath>
		<path clip-path="url(#SVGID_2_)" fill="#233F95" d="M-180.3,197.8c0.2-2.1,1.6-3.2,3.8-3.2c2.2,0,3.6,1.1,3.7,3.2
			c0.1,1.1-0.5,1.9-1.4,3.1c-0.6,0.9-1.2,1.9-1.6,3.3h-1.5c-0.3-1.4-0.9-2.4-1.6-3.3C-179.7,199.7-180.4,198.9-180.3,197.8
			 M-174.4,205.8c0-3.5,3.5-4.7,3.3-8.1c-0.2-2.2-1.6-4.6-5.3-4.6s-5.2,2.5-5.3,4.6c-0.3,3.5,3.3,4.7,3.3,8.1L-174.4,205.8
			L-174.4,205.8z M-178.7,208.3c0.6,0.4,1.3,0.7,2.2,0.7c0.9,0,1.6-0.3,2.2-0.7l0-1.7h-4.3L-178.7,208.3z"/>
	</g>
</g>
</svg>
