<?xml version="1.0" encoding="utf-8"?>
<!-- Generator: Adobe Illustrator 18.1.1, SVG Export Plug-In . SVG Version: 6.00 Build 0)  -->
<svg version="1.1" id="Layer_1" xmlns="http://www.w3.org/2000/svg" xmlns:xlink="http://www.w3.org/1999/xlink" x="0px" y="0px"
	 viewBox="-188 193 23 16" enable-background="new -188 193 23 16" xml:space="preserve">
<g>
	<g>
		<defs>
			<rect id="SVGID_1_" x="-185.5" y="193" width="18" height="14.8"/>
		</defs>
		<clipPath id="SVGID_2_">
			<use xlink:href="#SVGID_1_"  overflow="visible"/>
		</clipPath>
		<path clip-path="url(#SVGID_2_)" fill="#233F95" d="M-183.4,204.6c-0.7,0-1.4,0.4-2.1,0.7v2.1c0,0,1.1-0.7,2.1-0.7
			c1.1,0,2.1,1.1,3.7,1.1c1.6,0,2.1-1,3.2-1.1c1.1,0,1.6,1.1,3.2,1.1c1.6,0,2.6-1.1,3.7-1.1c0.7,0,2.1,0.7,2.1,0.7v-2.1
			c-0.7-0.3-1.4-0.7-2.1-0.7c-1.6,0-2.6,1.1-3.7,1.1s-1.6-1.1-3.2-1.1c-1.6,0-2.1,1.1-3.2,1.1C-180.7,205.7-181.8,204.6-183.4,204.6
			 M-171.7,196.2c-1.2,0-2.1,0.9-2.1,2.1c0,1.2,0.9,2.1,2.1,2.1c1.2,0,2.1-0.9,2.1-2.1C-169.6,197.1-170.6,196.2-171.7,196.2
			 M-173.7,193c-0.2,0-0.5,0.1-0.6,0.2l-4.2,2c-0.6,0.3-0.8,1.1-0.4,1.6l1.3,1.8l-5,3.9c1.2,0.2,2.1,1,3,1c1.1,0,1.6-1.1,3.2-1.1
			c1.6,0,2.1,1.1,3.2,1.1c0.4,0,0.9-0.2,1.4-0.4l-4.5-6.5l3.2-1.6c0.6-0.3,0.6-0.9,0.5-1.2C-172.8,193.4-173.1,193-173.7,193"/>
	</g>
</g>
</svg>
