<?xml version="1.0" encoding="utf-8"?>
<!-- Generator: Adobe Illustrator 18.1.1, SVG Export Plug-In . SVG Version: 6.00 Build 0)  -->
<svg version="1.1" id="Layer_1" xmlns="http://www.w3.org/2000/svg" xmlns:xlink="http://www.w3.org/1999/xlink" x="0px" y="0px"
	 viewBox="-188 193 23 16" enable-background="new -188 193 23 16" xml:space="preserve">
<g>
	<g>
		<defs>
			<rect id="SVGID_1_" x="-185.3" y="193" width="17.6" height="14.1"/>
		</defs>
		<clipPath id="SVGID_2_">
			<use xlink:href="#SVGID_1_"  overflow="visible"/>
		</clipPath>
		<path clip-path="url(#SVGID_2_)" fill="#233F95" d="M-171.2,201.8h-10.6v-7h10.6L-171.2,201.8L-171.2,201.8z M-179.1,205.3
			l0.5-0.9h4.2l0.5,0.9H-179.1z M-167.9,205c-0.2-0.3-1.5-2.3-1.5-2.3v-7.9c0-1-0.8-1.8-1.8-1.8h-10.6c-1,0-1.8,0.8-1.8,1.8v7.9
			c0,0-1.3,2-1.5,2.3c-0.2,0.3-0.2,0.5-0.2,0.8v0.4c0,0.4,0.4,0.9,0.9,0.9h15.8c0.4,0,0.9-0.4,0.9-0.9v-0.4
			C-167.7,205.5-167.7,205.3-167.9,205"/>
	</g>
</g>
</svg>
