<?xml version="1.0" encoding="utf-8"?>
<!-- Generator: Adobe Illustrator 15.1.0, SVG Export Plug-In  -->
<!DOCTYPE svg PUBLIC "-//W3C//DTD SVG 1.1//EN" "http://www.w3.org/Graphics/SVG/1.1/DTD/svg11.dtd" [
	<!ENTITY ns_flows "http://ns.adobe.com/Flows/1.0/">
]>
<svg version="1.1"
	 xmlns="http://www.w3.org/2000/svg" xmlns:xlink="http://www.w3.org/1999/xlink" xmlns:a="http://ns.adobe.com/AdobeSVGViewerExtensions/3.0/"
	 x="0px" y="0px" width="23px" height="16px" viewBox="-9.799 0.001 23 16"
	 overflow="visible" enable-background="new -9.799 0.001 23 16" xml:space="preserve">
<defs>
</defs>
<g>
	<defs>
		<rect id="SVGID_1_" y="0.001" width="12.826" height="16.042"/>
	</defs>
	<clipPath id="SVGID_2_">
		<use xlink:href="#SVGID_1_"  overflow="visible"/>
	</clipPath>
	<path clip-path="url(#SVGID_2_)" fill="#233F95" d="M2.997,12.867l0.589-2.172h5.653l0.588,2.172H2.997z M12.375,5.902H0.451
		C0.202,5.902,0,6.104,0,6.353v0.539c0,0.214,0.149,0.393,0.35,0.439c0,0.586,0.102,1.509,0.671,2.17
		c0.323,0.372,0.743,0.61,1.256,0.711v0.032c0,0.165,0.089,0.308,0.22,0.387l-1.345,4.961c-0.067,0.249,0.08,0.451,0.329,0.451
		h0.205c0.25,0,0.506-0.202,0.573-0.451l0.457-1.682c0.011,0.001,0.021,0.002,0.034,0.002h7.362l0.454,1.68
		c0.068,0.249,0.326,0.451,0.576,0.451h0.204c0.249,0,0.396-0.202,0.328-0.451l-1.346-4.961c0.132-0.079,0.22-0.222,0.22-0.387
		V9.726c0-0.249-0.201-0.45-0.45-0.45H2.729c-0.125,0-0.238,0.051-0.32,0.133C2.088,9.34,1.834,9.195,1.639,8.97
		C1.238,8.506,1.164,7.801,1.165,7.343h1.499V8.03c0,0.249,0.202,0.451,0.452,0.451h6.597c0.249,0,0.449-0.202,0.449-0.451V7.343
		h2.214c0.249,0,0.451-0.202,0.451-0.451V6.353C12.826,6.104,12.624,5.902,12.375,5.902"/>
	<path clip-path="url(#SVGID_2_)" fill="#233F95" d="M9.701,0.452C9.701,0.203,9.5,0,9.25,0H3.574c-0.25,0-0.452,0.203-0.452,0.452
		L2.873,5.21h7.08L9.701,0.452z"/>
</g>
</svg>
