<?xml version="1.0" encoding="utf-8"?>
<!-- Generator: Adobe Illustrator 18.1.1, SVG Export Plug-In . SVG Version: 6.00 Build 0)  -->
<svg version="1.1" id="Layer_1" xmlns="http://www.w3.org/2000/svg" xmlns:xlink="http://www.w3.org/1999/xlink" x="0px" y="0px"
	 viewBox="-188 193 23 16" enable-background="new -188 193 23 16" xml:space="preserve">
<g>
	<g>
		<defs>
			<rect id="SVGID_1_" x="-185" y="193" width="16.9" height="16"/>
		</defs>
		<clipPath id="SVGID_2_">
			<use xlink:href="#SVGID_1_"  overflow="visible"/>
		</clipPath>
		<path clip-path="url(#SVGID_2_)" fill="#233F95" d="M-174.7,193c-0.7,0-1.3,0.6-1.3,1.3c0,0.7,0.6,1.3,1.3,1.3
			c0.7,0,1.3-0.6,1.3-1.3C-173.4,193.6-174,193-174.7,193 M-173.4,196.1C-173.4,196.1-173.5,196.1-173.4,196.1
			c-0.2,0.1-0.3,0.3-0.4,0.5l-1.8,5.1l-2.9,0.9l-2.1-3.4c-0.1-0.2-0.3-0.3-0.4-0.3c-0.1,0-0.3,0.1-0.4,0.4l-1.8,4.8l-1.8,0.6
			l0.5,1.6l4.1-1.3l-1.8,2.1c-0.3,0.3-0.2,0.7,0,0.9c0.1,0.1,0.3,0.2,0.5,0.2c0.2,0,0.3-0.1,0.5-0.2c0,0,3.3-3.8,3.3-3.8
			c0,0,0,0,0,0v0l1.3-0.4l-2.2,5.3h5.3l-2.2-5.7l1.3-0.4l3.4,2.4c0.1,0.1,0.2,0.1,0.4,0.1c0.3,0,0.6-0.2,0.6-0.5
			c0.1-0.5-0.1-0.7-0.4-0.9l-2.4-1.7l4.6-1.4l-0.5-1.6l-1.8,0.6c-0.6-1.1-2.1-3-2.5-3.5C-173.1,196.2-173.3,196.1-173.4,196.1
			 M-180.1,195.7c-0.7,0-1.3,0.6-1.3,1.3c0,0.7,0.6,1.3,1.3,1.3s1.3-0.6,1.3-1.3C-178.7,196.3-179.3,195.7-180.1,195.7"/>
	</g>
	<g>
		<defs>
			<rect id="SVGID_3_" x="-185" y="193" width="16.9" height="16"/>
		</defs>
		<clipPath id="SVGID_4_">
			<use xlink:href="#SVGID_3_"  overflow="visible"/>
		</clipPath>
		<path clip-path="url(#SVGID_4_)" fill="#233F95" d="M-173.5,196.1c-0.2,0.1-0.3,0.3-0.3,0.5l-1.8,5.1l-2.9,0.9l-2.1-3.4
			c-0.3-0.5-0.6-0.4-0.8,0l-1.8,4.8l-1.8,0.6l0.5,1.6l4.1-1.3l-1.8,2.1c-0.3,0.3-0.2,0.7,0,0.9c0.2,0.3,0.7,0.4,1,0
			c0,0,3.6-4.1,3.3-3.8v0l1.3-0.4l-2.2,5.3h5.3l-2.2-5.7l1.3-0.4l3.4,2.4c0.3,0.2,0.9,0.1,1-0.4c0.1-0.5-0.1-0.7-0.4-0.9l-2.4-1.7
			l4.6-1.4l-0.5-1.6l-1.8,0.6c-0.6-1.1-2.1-3-2.5-3.5C-173.1,196.1-173.3,196-173.5,196.1 M-180.1,195.7c-0.7,0-1.3,0.6-1.3,1.3
			c0,0.7,0.6,1.3,1.3,1.3c0.7,0,1.3-0.6,1.3-1.3C-178.7,196.3-179.3,195.7-180.1,195.7 M-174.7,193c-0.7,0-1.3,0.6-1.3,1.3
			c0,0.7,0.6,1.3,1.3,1.3c0.7,0,1.3-0.6,1.3-1.3C-173.4,193.6-174,193-174.7,193"/>
	</g>
</g>
</svg>
