<?xml version="1.0" encoding="utf-8"?>
<!-- Generator: Adobe Illustrator 18.1.1, SVG Export Plug-In . SVG Version: 6.00 Build 0)  -->
<svg version="1.1" width="23" height="16" id="Layer_1" xmlns="http://www.w3.org/2000/svg" xmlns:xlink="http://www.w3.org/1999/xlink" x="0px" y="0px"
	 viewBox="-188 193 23 16" enable-background="new -188 193 23 16" xml:space="preserve">
<g>
	<g>
		<defs>
			<rect id="SVGID_1_" x="-186" y="193" width="19" height="14.8"/>
		</defs>
		<clipPath id="SVGID_2_">
			<use xlink:href="#SVGID_1_"  overflow="visible"/>
		</clipPath>
		<path clip-path="url(#SVGID_2_)" fill="#233F95" d="M-167,193.6c0-0.3-0.3-0.6-0.7-0.6h-11.8c-0.4,0-0.7,0.3-0.7,0.6v3.1h-1.6
			c-0.4,0-0.9,0.2-1.1,0.4l-2,1.9c-0.3,0.2-0.5,0.7-0.5,1v4c-0.4,0-0.7,0.3-0.7,0.6c0,0.3,0.3,0.6,0.7,0.6h1.3
			c0,1.4,1.2,2.5,2.6,2.5c1.5,0,2.6-1.1,2.6-2.5h3.9c0,1.4,1.2,2.5,2.6,2.5c1.5,0,2.6-1.1,2.6-2.5h2c0.4,0,0.7-0.3,0.7-0.6
			L-167,193.6L-167,193.6z M-169.6,198.9c0,0.2-0.1,0.3-0.3,0.3h-2.3v2.2c0,0.2-0.1,0.3-0.3,0.3h-2c-0.2,0-0.3-0.1-0.3-0.3v-2.2
			h-2.3c-0.2,0-0.3-0.1-0.3-0.3V197c0-0.2,0.1-0.3,0.3-0.3h2.3v-2.2c0-0.2,0.1-0.3,0.3-0.3h2c0.2,0,0.3,0.1,0.3,0.3v2.2h2.3
			c0.2,0,0.3,0.1,0.3,0.3C-169.6,197-169.6,198.9-169.6,198.9z M-170.9,205.3c0,0.7-0.6,1.2-1.3,1.2s-1.3-0.5-1.3-1.2
			c0-0.7,0.6-1.2,1.3-1.2S-170.9,204.6-170.9,205.3 M-184,200.4v-0.3c0-0.1,0.1-0.2,0.1-0.2l2-1.9c0.1,0,0.2-0.1,0.2-0.1h1.6v2.5
			H-184z M-180.1,205.3c0,0.7-0.6,1.2-1.3,1.2c-0.7,0-1.3-0.5-1.3-1.2c0-0.7,0.6-1.2,1.3-1.2C-180.7,204.1-180.1,204.6-180.1,205.3"
			/>
	</g>
</g>
</svg>
