<?xml version="1.0" encoding="utf-8"?>
<!-- Generator: Adobe Illustrator 15.1.0, SVG Export Plug-In  -->
<!DOCTYPE svg PUBLIC "-//W3C//DTD SVG 1.1//EN" "http://www.w3.org/Graphics/SVG/1.1/DTD/svg11.dtd" [
	<!ENTITY ns_flows "http://ns.adobe.com/Flows/1.0/">
]>
<svg version="1.1"
	 xmlns="http://www.w3.org/2000/svg" xmlns:xlink="http://www.w3.org/1999/xlink" xmlns:a="http://ns.adobe.com/AdobeSVGViewerExtensions/3.0/"
	 x="0px" y="0px" width="23px" height="16px" viewBox="-3.458 -0.709 23 16"
	 overflow="visible" enable-background="new -3.458 -0.709 23 16" xml:space="preserve">
<defs>
</defs>
<g>
	<defs>
		<rect id="SVGID_1_" x="0" width="19.167" height="15.333"/>
	</defs>
	<clipPath id="SVGID_2_">
		<use xlink:href="#SVGID_1_"  overflow="visible"/>
	</clipPath>
	<path clip-path="url(#SVGID_2_)" fill="#233F95" d="M15.258,10.044c0,0-1.65-0.421-1.65-1.267c0.002-0.807,1.073-1.112,1.073-2.762
		c0-1.302-0.42-2.104-1.721-2.104c-1.344,0-1.726,0.803-1.726,2.104c-0.001,1.65,1.037,1.955,1.037,2.762
		c0,0.846-1.614,1.267-1.614,1.267c-0.114,0-0.114,1.338-0.114,1.338h4.792C15.335,11.382,15.335,10.044,15.258,10.044 M8.623,3.912
		H3.834v1.721h4.789V3.912z M8.623,6.786H3.834v1.721h4.789V6.786z M8.623,9.663H3.834v1.722h4.789V9.663z M17.254,13.42H1.913
		V1.913h15.341V13.42z M17.254,0H1.913C0.88,0,0,0.841,0,1.912V13.42c0,1.032,0.88,1.912,1.913,1.912h15.341
		c1.071,0,1.912-0.88,1.912-1.912V1.912C19.166,0.841,18.325,0,17.254,0"/>
</g>
</svg>
