<?xml version="1.0" encoding="utf-8"?>
<!-- Generator: Adobe Illustrator 15.1.0, SVG Export Plug-In  -->
<!DOCTYPE svg PUBLIC "-//W3C//DTD SVG 1.1//EN" "http://www.w3.org/Graphics/SVG/1.1/DTD/svg11.dtd" [
	<!ENTITY ns_flows "http://ns.adobe.com/Flows/1.0/">
]>
<svg version="1.1"
	 xmlns="http://www.w3.org/2000/svg" xmlns:xlink="http://www.w3.org/1999/xlink" xmlns:a="http://ns.adobe.com/AdobeSVGViewerExtensions/3.0/"
	 x="0px" y="0px" width="23px" height="16px" viewBox="-4.662 -1.248 23 16"
	 overflow="visible" enable-background="new -4.662 -1.248 23 16" xml:space="preserve">
<defs>
</defs>
<g>
	<defs>
		<rect id="SVGID_1_" y="0.001" width="17.963" height="14.792"/>
	</defs>
	<clipPath id="SVGID_2_">
		<use xlink:href="#SVGID_1_"  overflow="visible"/>
	</clipPath>
	<path clip-path="url(#SVGID_2_)" fill="#233F95" d="M2.113,11.624c-0.733,0-1.415,0.427-2.113,0.659v2.146
		c0,0,1.058-0.692,2.113-0.692c1.057,0,2.114,1.057,3.699,1.057s2.085-1.021,3.169-1.057c1.058,0,1.586,1.057,3.17,1.057
		c1.586,0,2.643-1.057,3.699-1.057c0.739,0,2.112,0.692,2.112,0.692v-2.146c-0.677-0.259-1.42-0.659-2.112-0.659
		c-1.586,0-2.643,1.057-3.699,1.057c-1.056,0-1.584-1.057-3.17-1.057c-1.584,0-2.113,1.057-3.169,1.057
		C4.755,12.68,3.698,11.624,2.113,11.624 M13.736,3.17c-1.167,0-2.113,0.947-2.113,2.113c0,1.167,0.946,2.114,2.113,2.114
		c1.166,0,2.113-0.947,2.113-2.114C15.85,4.117,14.902,3.17,13.736,3.17 M11.755,0c-0.167,0-0.459,0.098-0.595,0.166L6.934,2.212
		C6.372,2.479,6.166,3.298,6.539,3.798l1.286,1.75L2.839,9.412c1.193,0.241,2.088,0.989,2.972,0.989
		c1.056,0,1.585-1.056,3.169-1.056c1.586,0,2.114,1.056,3.17,1.056c0.436,0,0.883-0.185,1.354-0.396L9.048,3.534l3.201-1.618
		c0.636-0.318,0.597-0.865,0.529-1.188C12.717,0.418,12.335,0,11.755,0"/>
</g>
</svg>
