<?xml version="1.0" encoding="utf-8"?>
<!-- Generator: Adobe Illustrator 18.1.1, SVG Export Plug-In . SVG Version: 6.00 Build 0)  -->
<svg version="1.1" width="23" height="16" id="Layer_1" xmlns="http://www.w3.org/2000/svg" xmlns:xlink="http://www.w3.org/1999/xlink" x="0px" y="0px"
	 viewBox="-188 193 23 16" enable-background="new -188 193 23 16" xml:space="preserve">
<g>
	<g>
		<defs>
			<rect id="SVGID_1_" x="-184.8" y="193" width="16.5" height="15.4"/>
		</defs>
		<clipPath id="SVGID_2_">
			<use xlink:href="#SVGID_1_"  overflow="visible"/>
		</clipPath>
		<path clip-path="url(#SVGID_2_)" fill="#233F95" d="M-169.3,195.2c0-1.2-1-2.2-2.2-2.2c-1.2,0-2.2,1-2.2,2.2c0,1.2,1,2.2,2.2,2.2
			C-170.3,197.4-169.3,196.4-169.3,195.2 M-168.2,200.4c0-0.7,0-3-1.1-3c-0.2,0-1.1,0.7-2.2,0.7c-0.4,0-0.8-0.1-1.1-0.2
			c0,0.2,0,0.4,0,0.6c0,0.8-0.2,1.6-0.7,2.2c0.9,0,1.7,0.4,2.3,1.1h1.1C-169.1,201.8-168.2,201.4-168.2,200.4 M-173.2,198.5
			c0-1.8-1.5-3.3-3.3-3.3c-1.8,0-3.3,1.5-3.3,3.3c0,1.8,1.5,3.3,3.3,3.3C-174.7,201.8-173.2,200.3-173.2,198.5 M-179.2,195.2
			c0-1.2-1-2.2-2.2-2.2c-1.2,0-2.2,1-2.2,2.2c0,1.2,1,2.2,2.2,2.2C-180.2,197.4-179.2,196.4-179.2,195.2 M-170.4,206.2
			c0-1.9-0.5-4.9-3-4.9c-0.3,0-1.4,1.2-3.1,1.2c-1.7,0-2.8-1.2-3.1-1.2c-2.5,0-3,3-3,4.9c0,1.4,0.9,2.2,2.3,2.2h7.5
			C-171.4,208.4-170.4,207.6-170.4,206.2 M-179.7,200.7c-0.4-0.6-0.7-1.4-0.7-2.2c0-0.2,0-0.4,0-0.6c-0.4,0.1-0.7,0.2-1.1,0.2
			c-1.2,0-2.1-0.7-2.2-0.7c-1.1,0-1.1,2.3-1.1,3c0,1,0.8,1.4,1.7,1.4h1.2C-181.4,201.1-180.5,200.7-179.7,200.7"/>
	</g>
</g>
</svg>
