<?xml version="1.0" encoding="utf-8"?>
<!-- Generator: Adobe Illustrator 15.1.0, SVG Export Plug-In  -->
<!DOCTYPE svg PUBLIC "-//W3C//DTD SVG 1.1//EN" "http://www.w3.org/Graphics/SVG/1.1/DTD/svg11.dtd" [
	<!ENTITY ns_flows "http://ns.adobe.com/Flows/1.0/">
]>
<svg version="1.1"
	 xmlns="http://www.w3.org/2000/svg" xmlns:xlink="http://www.w3.org/1999/xlink" xmlns:a="http://ns.adobe.com/AdobeSVGViewerExtensions/3.0/"
	 x="0px" y="0px" width="23px" height="16px" viewBox="-8.428 -0.087 23 16"
	 overflow="visible" enable-background="new -8.428 -0.087 23 16" xml:space="preserve">
<defs>
</defs>
<g>
	<defs>
		<rect id="SVGID_1_" width="14.197" height="15.954"/>
	</defs>
	<clipPath id="SVGID_2_">
		<use xlink:href="#SVGID_1_"  overflow="visible"/>
	</clipPath>
	<path clip-path="url(#SVGID_2_)" fill="#233F95" d="M7.099,15.675c-0.629-0.008-1.316,0.366-2.461,0.26
		c-1.141-0.109-3.2-2.164-4.342-5.839C-0.849,6.419,1.56,3.878,3.61,3.609c1.86-0.244,2.786,0.47,3.089,0.756
		c0.312,0.297,0.459,0.243,0.801,0c0.34-0.241,1.028-0.973,3.086-0.756c2.058,0.214,4.458,2.811,3.316,6.487
		c-1.145,3.675-3.201,5.729-4.345,5.839C8.413,16.041,7.725,15.682,7.099,15.675"/>
	<path clip-path="url(#SVGID_2_)" fill="#233F95" d="M0.789,0.22c0,0,1.838-0.585,3.412,0.152c1.071,0.5,2.278,3.047,2.278,3.047
		S5.371,2.664,3.634,2.932C1.884,3.204,0.971,0.975,0.789,0.22"/>
</g>
<polygon fill="#233F95" points="7.167,3.649 7.167,0.804 8.929,1.277 "/>
</svg>
