<?xml version="1.0" encoding="utf-8"?>
<!-- Generator: Adobe Illustrator 18.1.1, SVG Export Plug-In . SVG Version: 6.00 Build 0)  -->
<svg version="1.1" id="Layer_1" xmlns="http://www.w3.org/2000/svg" xmlns:xlink="http://www.w3.org/1999/xlink" x="0px" y="0px"
	 viewBox="-188 193 23 16" enable-background="new -188 193 23 16" xml:space="preserve">
<g>
	<g>
		<defs>
			<rect id="SVGID_1_" x="-184.3" y="193" width="15.5" height="14.5"/>
		</defs>
		<clipPath id="SVGID_2_">
			<use xlink:href="#SVGID_1_"  overflow="visible"/>
		</clipPath>
		<path clip-path="url(#SVGID_2_)" fill="#233F95" d="M-182.2,206c-0.2,0.2-0.2,0.4,0,0.6l0.7,0.8c0.2,0.2,0.4,0.1,0.6-0.1l3.8-3.9
			l-1.2-1.4L-182.2,206z M-168.8,194.8c-0.1-0.4-0.3-0.3-0.4-0.1c-0.1,0.2-0.6,0.9-0.8,1.2c-0.2,0.3-0.6,1-1.5,0.3
			c-0.9-0.7-0.6-1.1-0.4-1.4c0.2-0.3,0.6-1.2,0.7-1.3c0.1-0.1,0-0.4-0.3-0.3c-0.3,0.1-2,0.8-2.2,1.8c-0.2,1,0.2,1.9-0.7,2.9l-1,1.1
			l1.1,1.3l1.3-1.3c0.3-0.3,1-0.6,1.6-0.5c1.3,0.3,2-0.2,2.4-1C-168.7,196.8-168.7,195.2-168.8,194.8 M-177.4,198.1
			c-0.1-0.1-0.2-0.1-0.3,0l-1.1,1c-0.1,0.1-0.1,0.2,0,0.3l6.5,7.7c0.2,0.2,0.4,0.2,0.6,0l0.8-0.7c0.2-0.2,0.2-0.4,0-0.6
			L-177.4,198.1z M-181.9,197.7c0.7-0.6,1.3-0.2,2.1,0.8c0.1,0.1,0.2,0,0.3-0.1c0.1-0.1,1.1-1.1,1.2-1.1c0.1,0,0.1-0.1,0-0.2
			c-0.1-0.1-0.4-0.5-0.6-0.8c-1.4-1.9,3.9-3.2,3.1-3.3c-0.4,0-2.1,0-2.3,0c-1,0.1-2.3,1.1-2.9,1.5c-0.8,0.6-1.1,0.9-1.2,1
			c-0.2,0.2,0,0.7-0.5,1.1c-0.4,0.4-0.7,0.1-1,0.3c-0.1,0.1-0.5,0.4-0.6,0.5c-0.1,0.1-0.1,0.3,0,0.4c0,0,1,1.1,1.1,1.2
			c0.1,0.1,0.3,0.2,0.4,0.1c0.1-0.1,0.5-0.5,0.6-0.5C-182.1,198.6-182.2,198-181.9,197.7"/>
	</g>
</g>
</svg>
