<?xml version="1.0" encoding="utf-8"?>
<!-- Generator: Adobe Illustrator 15.1.0, SVG Export Plug-In  -->
<!DOCTYPE svg PUBLIC "-//W3C//DTD SVG 1.1//EN" "http://www.w3.org/Graphics/SVG/1.1/DTD/svg11.dtd" [
	<!ENTITY ns_flows "http://ns.adobe.com/Flows/1.0/">
]>
<svg version="1.1"
	 xmlns="http://www.w3.org/2000/svg" xmlns:xlink="http://www.w3.org/1999/xlink" xmlns:a="http://ns.adobe.com/AdobeSVGViewerExtensions/3.0/"
	 x="0px" y="0px" width="23px" height="16px" viewBox="-6.125 -0.64 23 16"
	 overflow="visible" enable-background="new -6.125 -0.64 23 16" xml:space="preserve">
<defs>
</defs>
<g>
	<defs>
		<rect id="SVGID_1_" width="16.5" height="15.402"/>
	</defs>
	<clipPath id="SVGID_2_">
		<use xlink:href="#SVGID_1_"  overflow="visible"/>
	</clipPath>
	<path clip-path="url(#SVGID_2_)" fill="#233F95" d="M15.401,2.201c0-1.211-0.989-2.2-2.201-2.2S11,0.989,11,2.201
		c0,1.212,0.988,2.201,2.2,2.201S15.401,3.413,15.401,2.201 M16.5,7.435c0-0.696,0.026-3.033-1.064-3.033
		c-0.18,0-1.074,0.73-2.235,0.73c-0.396,0-0.773-0.07-1.143-0.199C12.083,5.124,12.1,5.312,12.1,5.5
		c0,0.782-0.248,1.557-0.695,2.201c0.894,0.026,1.701,0.412,2.277,1.1h1.15C15.692,8.801,16.5,8.388,16.5,7.435 M11.551,5.5
		c0-1.822-1.479-3.3-3.3-3.3c-1.822,0-3.3,1.478-3.3,3.3c0,1.821,1.478,3.301,3.3,3.301C10.071,8.801,11.551,7.322,11.551,5.5
		 M5.5,2.201c0-1.211-0.988-2.2-2.2-2.2c-1.211,0-2.2,0.988-2.2,2.2c0,1.212,0.988,2.201,2.2,2.201C4.512,4.402,5.5,3.413,5.5,2.201
		 M14.3,13.175c0-1.941-0.454-4.925-2.973-4.925c-0.292,0-1.356,1.196-3.076,1.196S5.467,8.25,5.173,8.25
		c-2.518,0-2.973,2.983-2.973,4.925c0,1.394,0.92,2.227,2.294,2.227h7.511C13.381,15.402,14.3,14.569,14.3,13.175 M5.096,7.701
		C4.65,7.057,4.401,6.283,4.401,5.5c0-0.188,0.017-0.377,0.042-0.567C4.074,5.062,3.695,5.132,3.3,5.132
		c-1.16,0-2.053-0.73-2.234-0.73C-0.025,4.402,0,6.739,0,7.435c0,0.953,0.807,1.366,1.667,1.366h1.151
		C3.394,8.113,4.203,7.727,5.096,7.701"/>
</g>
</svg>
