<?xml version="1.0" encoding="utf-8"?>
<!-- Generator: Adobe Illustrator 15.1.0, SVG Export Plug-In  -->
<!DOCTYPE svg PUBLIC "-//W3C//DTD SVG 1.1//EN" "http://www.w3.org/Graphics/SVG/1.1/DTD/svg11.dtd" [
	<!ENTITY ns_flows "http://ns.adobe.com/Flows/1.0/">
]>
<svg version="1.1"
	 xmlns="http://www.w3.org/2000/svg" xmlns:xlink="http://www.w3.org/1999/xlink" xmlns:a="http://ns.adobe.com/AdobeSVGViewerExtensions/3.0/"
	 x="0px" y="0px" width="23px" height="16px" viewBox="-5.191 -1.708 23 16"
	 overflow="visible" enable-background="new -5.191 -1.708 23 16" xml:space="preserve">
<defs>
</defs>
<g>
	<defs>
		<rect id="SVGID_1_" width="17.434" height="14.334"/>
	</defs>
	<clipPath id="SVGID_2_">
		<use xlink:href="#SVGID_1_"  overflow="visible"/>
	</clipPath>
	<path clip-path="url(#SVGID_2_)" fill="#233F95" d="M15.841,10.693c-1.691,1.455-3.029,2.604-6.656,0.555
		c-4.792-2.708-7.037-0.78-8.841,0.77c-0.408,0.352-0.461,0.977-0.117,1.393c0.344,0.419,0.955,0.472,1.364,0.12
		c1.692-1.452,3.028-2.601,6.657-0.552c1.741,0.983,3.146,1.355,4.316,1.355c2.048,0,3.376-1.142,4.523-2.126
		c0.409-0.352,0.462-0.977,0.118-1.395S16.251,10.343,15.841,10.693 M15.841,5.748c-1.691,1.453-3.029,2.604-6.656,0.553
		C4.393,3.593,2.148,5.521,0.344,7.07c-0.408,0.353-0.461,0.976-0.117,1.394c0.344,0.418,0.955,0.473,1.364,0.122
		C3.284,7.131,4.62,5.983,8.249,8.031c1.741,0.986,3.146,1.356,4.316,1.356c2.048,0,3.376-1.141,4.523-2.126
		c0.409-0.351,0.462-0.977,0.118-1.393C16.863,5.448,16.251,5.396,15.841,5.748 M1.592,3.639C3.284,2.186,4.62,1.038,8.249,3.087
		c1.741,0.984,3.146,1.355,4.316,1.353c2.048,0,3.376-1.139,4.523-2.124c0.409-0.351,0.462-0.976,0.118-1.394
		c-0.347-0.419-0.955-0.473-1.365-0.121c-1.691,1.454-3.029,2.604-6.656,0.552C4.393-1.35,2.148,0.576,0.344,2.126
		C-0.063,2.479-0.116,3.1,0.228,3.519C0.573,3.937,1.183,3.991,1.592,3.639"/>
</g>
</svg>
