<?xml version="1.0" encoding="utf-8"?>
<!-- Generator: Adobe Illustrator 15.1.0, SVG Export Plug-In  -->
<!DOCTYPE svg PUBLIC "-//W3C//DTD SVG 1.1//EN" "http://www.w3.org/Graphics/SVG/1.1/DTD/svg11.dtd" [
	<!ENTITY ns_flows "http://ns.adobe.com/Flows/1.0/">
]>
<svg version="1.1"
	 xmlns="http://www.w3.org/2000/svg" xmlns:xlink="http://www.w3.org/1999/xlink" xmlns:a="http://ns.adobe.com/AdobeSVGViewerExtensions/3.0/"
	 x="0px" y="0px" width="23px" height="16px" viewBox="-3.605 -1.25 23 16"
	 overflow="visible" enable-background="new -3.605 -1.25 23 16" xml:space="preserve">
<defs>
</defs>
<g>
	<defs>
		<rect id="SVGID_1_" width="19.02" height="14.792"/>
	</defs>
	<clipPath id="SVGID_2_">
		<use xlink:href="#SVGID_1_"  overflow="visible"/>
	</clipPath>
	<path clip-path="url(#SVGID_2_)" fill="#233F95" d="M19.02,0.617C19.02,0.279,18.723,0,18.365,0H6.559
		C6.201,0,5.903,0.279,5.903,0.617v3.082h-1.64c-0.358,0-0.861,0.192-1.117,0.434L1.117,6.039c-0.255,0.24-0.461,0.713-0.461,1.049
		v4.006C0.298,11.094,0,11.373,0,11.711c0,0.336,0.298,0.616,0.656,0.616h1.312c0,1.357,1.167,2.465,2.623,2.465
		c1.457,0,2.624-1.107,2.624-2.465h3.937c0,1.357,1.178,2.465,2.622,2.465c1.456,0,2.624-1.107,2.624-2.465h1.968
		c0.358,0,0.655-0.28,0.655-0.616V0.617z M16.397,5.856c0,0.172-0.144,0.307-0.328,0.307h-2.296V8.32
		c0,0.174-0.143,0.309-0.326,0.309h-1.969c-0.185,0-0.327-0.135-0.327-0.309V6.163H8.855c-0.187,0-0.328-0.135-0.328-0.307v-1.85
		c0-0.173,0.142-0.308,0.328-0.308h2.296V1.541c0-0.173,0.143-0.308,0.327-0.308h1.969c0.184,0,0.326,0.135,0.326,0.308v2.157h2.296
		c0.185,0,0.328,0.135,0.328,0.308V5.856z M15.086,12.327c0,0.684-0.585,1.231-1.313,1.231c-0.728,0-1.311-0.548-1.311-1.231
		c0-0.685,0.583-1.233,1.311-1.233C14.501,11.094,15.086,11.643,15.086,12.327 M1.967,7.396V7.107
		c0.01-0.059,0.061-0.164,0.092-0.212l1.999-1.878C4.109,4.979,4.222,4.94,4.283,4.931h1.62v2.465H1.967z M5.903,12.327
		c0,0.684-0.584,1.231-1.312,1.231c-0.729,0-1.313-0.548-1.313-1.231c0-0.685,0.584-1.233,1.313-1.233
		C5.319,11.094,5.903,11.643,5.903,12.327"/>
</g>
</svg>
