<?xml version="1.0" encoding="utf-8"?>
<!-- Generator: Adobe Illustrator 15.1.0, SVG Export Plug-In  -->
<!DOCTYPE svg PUBLIC "-//W3C//DTD SVG 1.1//EN" "http://www.w3.org/Graphics/SVG/1.1/DTD/svg11.dtd" [
	<!ENTITY ns_flows "http://ns.adobe.com/Flows/1.0/">
]>
<svg version="1.1"
	 xmlns="http://www.w3.org/2000/svg" xmlns:xlink="http://www.w3.org/1999/xlink" xmlns:a="http://ns.adobe.com/AdobeSVGViewerExtensions/3.0/"
	 x="0px" y="0px" width="23px" height="16px" viewBox="-7.051 -0.736 23 16"
	 overflow="visible" enable-background="new -7.051 -0.736 23 16" xml:space="preserve">
<defs>
</defs>
<g>
	<defs>
		<rect id="SVGID_1_" y="0.001" width="15.574" height="15.305"/>
	</defs>
	<clipPath id="SVGID_2_">
		<use xlink:href="#SVGID_1_"  overflow="visible"/>
	</clipPath>
	<path clip-path="url(#SVGID_2_)" fill="#233F95" d="M3.121,7.184l0.47-0.672L3.323,6.177L3.726,5.64l0.469,0.168l0.403-0.47
		L4.263,5.035l0.469-0.537l0.403,0.269l0.504-0.47L5.303,3.894l0.504-0.469l0.402,0.302l0.504-0.403l-0.27-0.336l0.572-0.369
		l0.301,0.303L7.82,2.584L7.585,2.316l0.571-0.269L9.23,3.223L8.794,3.425L8.391,3.089L7.854,3.391l0.303,0.403L7.721,4.129
		L7.216,3.826L6.713,4.264l0.369,0.47L6.545,5.103L6.109,4.733L5.605,5.271l0.369,0.436L5.572,6.143L5.102,5.739L4.531,6.345
		l0.403,0.369l-0.403,0.47L4.028,6.981L3.591,7.586l0.403,0.402l-0.369,0.47L2.517,7.419l0.269-0.403L3.121,7.184z M15.339,4.9
		c0.167-0.973,0.235-1.678,0.235-2.483c0-1.88-0.739-2.417-2.887-2.417c-0.437,0-1.209,0.067-2.114,0.169L15.339,4.9z M6.881,14.667
		c4.396-1.812,6.545-4.094,7.988-8.055L8.76,0.571C4.632,2.183,2.819,3.928,0.705,8.458L6.881,14.667z M0,12.62
		c0,2.115,0.705,2.686,2.987,2.686c0.94,0,1.611-0.134,2.316-0.302l-5.001-5.001C0.134,10.908,0,11.747,0,12.62"/>
</g>
</svg>
