<?xml version="1.0" encoding="utf-8"?>
<!-- Generator: Adobe Illustrator 18.1.1, SVG Export Plug-In . SVG Version: 6.00 Build 0)  -->
<svg width="23" height="16" version="1.1" id="Layer_1" xmlns="http://www.w3.org/2000/svg" xmlns:xlink="http://www.w3.org/1999/xlink" x="0px" y="0px"
	 viewBox="-188 193 23 16" enable-background="new -188 193 23 16" xml:space="preserve">
<g>
	<g>
		<defs>
			<rect id="SVGID_1_" x="-185.1" y="193" width="17.3" height="15.4"/>
		</defs>
		<clipPath id="SVGID_2_">
			<use xlink:href="#SVGID_1_"  overflow="visible"/>
		</clipPath>
		<path clip-path="url(#SVGID_2_)" fill="#233F95" d="M-173.4,204.3c0.5,0,1-0.4,1-1c0-0.5-0.4-1-1-1c-0.5,0-1,0.4-1,1
			S-174,204.3-173.4,204.3 M-177.5,204.3c0.5,0,1-0.4,1-1c0-0.5-0.4-1-1-1s-1,0.4-1,1S-178.1,204.3-177.5,204.3 M-176.2,197.6h-6
			v-3.3h6V197.6z M-169.2,207h-14.6v-6.8h14.6C-169.2,200.2-169.2,207-169.2,207z M-184.3,198.8c-0.9,0-0.9,0.4-0.9,1.6v6.9
			c0,1,0.3,1,1.4,1h15c0.8,0,0.9-0.3,0.9-0.9v-7.6c0-0.9-0.3-1-1.1-1h-6.9c0.8-0.5,0.9-0.7,0.9-2.1v-1.1l6.1-1.4
			c0.4-0.1,0.6-0.2,0.6-0.6c0-0.5-0.3-0.7-0.7-0.7l-6,1.3V194c0-1-0.4-1-1.5-1h-6.4c-0.6,0-0.7,0.4-0.7,1.1v2.8
			c0,1.1,0.4,1.5,1.2,1.9C-182.3,198.8-184.3,198.8-184.3,198.8z"/>
	</g>
</g>
</svg>
