<?xml version="1.0" encoding="utf-8"?>
<!-- Generator: Adobe Illustrator 15.1.0, SVG Export Plug-In  -->
<!DOCTYPE svg PUBLIC "-//W3C//DTD SVG 1.1//EN" "http://www.w3.org/Graphics/SVG/1.1/DTD/svg11.dtd" [
	<!ENTITY ns_flows "http://ns.adobe.com/Flows/1.0/">
]>
<svg version="1.1"
	 xmlns="http://www.w3.org/2000/svg" xmlns:xlink="http://www.w3.org/1999/xlink" xmlns:a="http://ns.adobe.com/AdobeSVGViewerExtensions/3.0/"
	 x="0px" y="0px" width="23px" height="16px" viewBox="-4.292 -1.374 23 16"
	 overflow="visible" enable-background="new -4.292 -1.374 23 16" xml:space="preserve">
<defs>
</defs>
<g>
	<defs>
		<rect id="SVGID_1_" width="18.333" height="14.668"/>
	</defs>
	<clipPath id="SVGID_2_">
		<use xlink:href="#SVGID_1_"  overflow="visible"/>
	</clipPath>
	<path clip-path="url(#SVGID_2_)" fill="#233F95" d="M15.401,7.333c-0.916,0-1.143,0.748-1.219,1.101
		c-0.504,2.306-2.557,4.031-5.016,4.031c-1.417,0-2.7-0.573-3.629-1.504c-0.43-0.43-1.126-0.43-1.557,0
		c-0.428,0.431-0.428,1.126,0,1.557c1.327,1.327,3.161,2.147,5.186,2.147c3.284,0,6.062-2.158,6.996-5.131h2.171V7.333H15.401z
		 M4.152,6.234C4.655,3.927,6.708,2.2,9.167,2.2c1.417,0,2.7,0.575,3.629,1.504c0.431,0.43,1.127,0.43,1.556,0
		c0.431-0.43,0.431-1.126,0-1.556c-1.326-1.326-3.159-2.146-5.185-2.146c-3.283,0-6.063,2.157-6.997,5.133H0v2.199h2.932
		C3.848,7.333,4.073,6.588,4.152,6.234 M6.233,7.333c0,1.623,1.313,2.935,2.933,2.935S12.1,8.956,12.1,7.333
		c0-1.62-1.313-2.933-2.934-2.933C7.545,4.401,6.233,5.714,6.233,7.333"/>
</g>
</svg>
