<?xml version="1.0" encoding="utf-8"?>
<!-- Generator: Adobe Illustrator 15.1.0, SVG Export Plug-In  -->
<!DOCTYPE svg PUBLIC "-//W3C//DTD SVG 1.1//EN" "http://www.w3.org/Graphics/SVG/1.1/DTD/svg11.dtd" [
	<!ENTITY ns_flows "http://ns.adobe.com/Flows/1.0/">
]>
<svg version="1.1"
	 xmlns="http://www.w3.org/2000/svg" xmlns:xlink="http://www.w3.org/1999/xlink" xmlns:a="http://ns.adobe.com/AdobeSVGViewerExtensions/3.0/"
	 x="0px" y="0px" width="23px" height="16px" viewBox="-5.691 0.001 23 16"
	 overflow="visible" enable-background="new -5.691 0.001 23 16" xml:space="preserve">
<defs>
</defs>
<g>
	<defs>
		<rect id="SVGID_1_" y="0.001" width="16.933" height="16.042"/>
	</defs>
	<clipPath id="SVGID_2_">
		<use xlink:href="#SVGID_1_"  overflow="visible"/>
	</clipPath>
	<path clip-path="url(#SVGID_2_)" fill="#233F95" d="M10.249,0C9.508,0,8.912,0.596,8.912,1.338c0,0.74,0.596,1.336,1.337,1.336
		c0.74,0,1.337-0.597,1.337-1.336C11.586,0.596,10.989,0,10.249,0 M11.547,3.081c-0.026,0-0.049,0.004-0.073,0.011
		c-0.154,0.05-0.259,0.259-0.333,0.473L9.386,8.634L6.518,9.525L4.373,6.127c-0.146-0.235-0.296-0.34-0.428-0.34
		c-0.15,0-0.279,0.135-0.352,0.368l-1.755,4.846L0,11.586l0.501,1.615l4.149-1.31l-1.81,2.116c-0.275,0.268-0.184,0.724,0,0.92
		c0.129,0.139,0.317,0.234,0.515,0.234c0.165,0,0.338-0.068,0.488-0.234c0,0,3.322-3.809,3.307-3.809c0,0-0.008,0.007-0.021,0.021
		v-0.028l1.339-0.418l-2.229,5.348h5.348l-2.172-5.653l1.309-0.419l3.396,2.396c0.111,0.074,0.246,0.112,0.384,0.112
		c0.28,0,0.567-0.156,0.647-0.474c0.118-0.461-0.135-0.668-0.418-0.863L12.338,9.47l4.596-1.448l-0.502-1.616l-1.839,0.585
		C13.964,5.905,12.449,4,12.087,3.538C11.872,3.207,11.691,3.081,11.547,3.081 M4.902,2.674c-0.74,0-1.336,0.596-1.336,1.337
		s0.596,1.337,1.336,1.337s1.336-0.596,1.336-1.337S5.642,2.674,4.902,2.674"/>
	<path clip-path="url(#SVGID_2_)" fill="#233F95" d="M11.475,3.092c-0.155,0.05-0.259,0.259-0.334,0.474L9.386,8.634L6.517,9.525
		L4.373,6.128C4.061,5.624,3.73,5.719,3.593,6.156l-1.755,4.846L0,11.586l0.502,1.615l4.149-1.309l-1.811,2.115
		c-0.274,0.267-0.185,0.724,0,0.92c0.239,0.256,0.674,0.363,1.003,0c0,0,3.606-4.136,3.286-3.787v-0.028l1.337-0.418l-2.228,5.348
		h5.347l-2.172-5.653l1.309-0.418l3.396,2.395c0.335,0.228,0.909,0.111,1.031-0.361c0.118-0.461-0.135-0.667-0.417-0.863
		L12.339,9.47l4.594-1.449l-0.5-1.615l-1.839,0.585c-0.63-1.086-2.146-2.99-2.506-3.453C11.832,3.149,11.63,3.043,11.475,3.092
		 M4.901,2.674c-0.74,0-1.336,0.596-1.336,1.337s0.596,1.337,1.336,1.337c0.741,0,1.337-0.596,1.337-1.337S5.643,2.674,4.901,2.674
		 M10.249,0.001c-0.74,0-1.337,0.596-1.337,1.336c0,0.742,0.597,1.337,1.337,1.337s1.337-0.596,1.337-1.337
		C11.586,0.597,10.989,0.001,10.249,0.001"/>
</g>
</svg>
