<?xml version="1.0" encoding="utf-8"?>
<!-- Generator: Adobe Illustrator 18.1.1, SVG Export Plug-In . SVG Version: 6.00 Build 0)  -->
<svg version="1.1" width="23" height="16" id="Layer_1" xmlns="http://www.w3.org/2000/svg" xmlns:xlink="http://www.w3.org/1999/xlink" x="0px" y="0px"
	 viewBox="-188 193 23 16" enable-background="new -188 193 23 16" xml:space="preserve">
<g>
	<g>
		<g>
			<defs>
				<rect id="SVGID_1_" x="-187.8" y="193" width="22.6" height="16"/>
			</defs>
			<clipPath id="SVGID_2_">
				<use xlink:href="#SVGID_1_"  overflow="visible"/>
			</clipPath>
			<path clip-path="url(#SVGID_2_)" fill="#233F95" d="M-171,198.4v-2h0.8c0.3,0,0.3-0.1,0.1-0.3l-3.7-3c-0.2-0.1-0.5-0.1-0.7,0
				l-3.7,3c-0.2,0.2-0.1,0.3,0.1,0.3h0.8v1.9l-5.6,4.5c-0.4,0.4-0.3,0.6,0.3,0.6h1.7v4.9c0,0.3,0,0.6,0.8,0.6h3.9v-3.4h4.1v3.4h4
				c0.6,0,0.6-0.3,0.6-0.6v-4.9h1.7c0.6,0,0.8-0.3,0.3-0.6L-171,198.4z"/>
		</g>
	</g>
	<polygon fill="#233F95" points="-187.8,194.7 -183.7,196.2 -183.7,193.5 	"/>
	<rect x="-183.5" y="193.5" fill="#233F95" width="1.9" height="15.5"/>
</g>
</svg>
