<?xml version="1.0" encoding="utf-8"?>
<!-- Generator: Adobe Illustrator 15.1.0, SVG Export Plug-In  -->
<!DOCTYPE svg PUBLIC "-//W3C//DTD SVG 1.1//EN" "http://www.w3.org/Graphics/SVG/1.1/DTD/svg11.dtd" [
	<!ENTITY ns_flows "http://ns.adobe.com/Flows/1.0/">
]>
<svg version="1.1"
	 xmlns="http://www.w3.org/2000/svg" xmlns:xlink="http://www.w3.org/1999/xlink" xmlns:a="http://ns.adobe.com/AdobeSVGViewerExtensions/3.0/"
	 x="0px" y="0px" width="23px" height="16px" viewBox="-2.125 -2.375 23 16"
	 overflow="visible" enable-background="new -2.125 -2.375 23 16" xml:space="preserve">
<defs>
</defs>
<g>
	<defs>
		<rect id="SVGID_1_" width="20.5" height="13.667"/>
	</defs>
	<clipPath id="SVGID_2_">
		<use xlink:href="#SVGID_1_"  overflow="visible"/>
	</clipPath>
	<path clip-path="url(#SVGID_2_)" fill="#233F95" d="M20.5,3.416c0-0.124-0.081-0.23-0.195-0.275l-9.965-3.132
		C10.302,0,10.276,0,10.25,0c-0.025,0-0.052,0-0.09,0.009L0.196,3.141C0.081,3.186,0,3.292,0,3.416c0,0.126,0.081,0.232,0.196,0.277
		l2.962,0.925C2.607,5.393,2.34,6.514,2.288,7.555c-0.339,0.195-0.58,0.56-0.58,0.987c0,0.4,0.205,0.748,0.517,0.952l-0.517,3.853
		c-0.009,0.081,0.018,0.159,0.072,0.224c0.052,0.061,0.133,0.097,0.213,0.097h1.708c0.081,0,0.16-0.036,0.214-0.097
		c0.054-0.064,0.081-0.143,0.071-0.224L3.47,9.494C3.782,9.29,3.986,8.942,3.986,8.542c0-0.419-0.222-0.774-0.561-0.97
		c0.072-1.201,0.429-2.18,0.934-2.581l5.801,1.833c0.038,0.009,0.064,0.009,0.09,0.009c0.026,0,0.053,0,0.09-0.009l9.965-3.131
		C20.418,3.648,20.5,3.542,20.5,3.416 M15.784,6.3l-5.107,1.61c-0.143,0.044-0.284,0.062-0.427,0.062
		c-0.142,0-0.284-0.018-0.426-0.062L4.716,6.3l-0.16,2.812c-0.072,1.255,2.553,2.278,5.694,2.278c3.14,0,5.766-1.023,5.695-2.278
		L15.784,6.3z"/>
</g>
</svg>
