<?xml version="1.0" encoding="utf-8"?>
<!-- Generator: Adobe Illustrator 15.1.0, SVG Export Plug-In  -->
<!DOCTYPE svg PUBLIC "-//W3C//DTD SVG 1.1//EN" "http://www.w3.org/Graphics/SVG/1.1/DTD/svg11.dtd" [
	<!ENTITY ns_flows "http://ns.adobe.com/Flows/1.0/">
]>
<svg version="1.1"
	 xmlns="http://www.w3.org/2000/svg" xmlns:xlink="http://www.w3.org/1999/xlink" xmlns:a="http://ns.adobe.com/AdobeSVGViewerExtensions/3.0/"
	 x="0px" y="0px" width="23px" height="16px" viewBox="-3.713 -0.05 23 16"
	 overflow="visible" enable-background="new -3.713 -0.05 23 16" xml:space="preserve">
<defs>
</defs>
<g>
	<defs>
		<rect id="SVGID_1_" x="0" width="18.91" height="15.991"/>
	</defs>
	<clipPath id="SVGID_2_">
		<use xlink:href="#SVGID_1_"  overflow="visible"/>
	</clipPath>
	<path clip-path="url(#SVGID_2_)" fill="#233F95" d="M18.722,3.697L16.49,2.24c-0.151-0.072-0.303-0.142-0.492-0.214
		c-0.188-0.071-0.377-0.071-0.529-0.071H9l0.756,4.083h5.712c0.152,0,0.341-0.036,0.529-0.106c0.189-0.036,0.341-0.142,0.492-0.212
		l2.232-1.457c0.114-0.07,0.189-0.176,0.189-0.283c0-0.106-0.075-0.213-0.189-0.284V3.697z M8.055,0H7.187
		C6.999,0,6.81,0.142,6.81,0.355v3.378H3.481c-0.151,0-0.378,0-0.529,0.07C2.762,3.839,2.573,3.945,2.46,4.017L0.19,5.472
		C0.076,5.543,0,5.65,0,5.756C0,5.86,0.076,5.967,0.19,6.038l2.27,1.458c0.113,0.07,0.302,0.177,0.492,0.213
		C3.103,7.78,3.33,7.815,3.481,7.815H6.81v7.821c0,0.178,0.189,0.355,0.377,0.355h0.868c0.189,0,0.376-0.178,0.376-0.355V0.355
		C8.431,0.142,8.244,0,8.055,0"/>
</g>
</svg>
