<?xml version="1.0" encoding="utf-8"?>
<!-- Generator: Adobe Illustrator 15.1.0, SVG Export Plug-In  -->
<!DOCTYPE svg PUBLIC "-//W3C//DTD SVG 1.1//EN" "http://www.w3.org/Graphics/SVG/1.1/DTD/svg11.dtd" [
	<!ENTITY ns_flows "http://ns.adobe.com/Flows/1.0/">
]>
<svg version="1.1"
	 xmlns="http://www.w3.org/2000/svg" xmlns:xlink="http://www.w3.org/1999/xlink" xmlns:a="http://ns.adobe.com/AdobeSVGViewerExtensions/3.0/"
	 x="0px" y="0px" width="23px" height="16px" viewBox="-5.458 -0.193 23 16"
	 overflow="visible" enable-background="new -5.458 -0.193 23 16" xml:space="preserve">
<defs>
</defs>
<g>
	<defs>
		<rect id="SVGID_1_" width="17.167" height="15.849"/>
	</defs>
	<clipPath id="SVGID_2_">
		<use xlink:href="#SVGID_1_"  overflow="visible"/>
	</clipPath>
	<path clip-path="url(#SVGID_2_)" fill="#233F95" d="M17.167,8.585c0-1.084-0.896-1.982-1.979-1.982h-0.661V3.962
		c0-0.547-0.31-1.299-0.701-1.692l-1.567-1.568C11.866,0.311,11.111,0,10.565,0H3.63C3.084,0,2.641,0.445,2.641,0.991v5.612h-0.66
		C0.897,6.604,0,7.501,0,8.585v4.291c0,0.177,0.154,0.331,0.331,0.331h2.311v1.651c0,0.546,0.443,0.99,0.989,0.99h9.906
		c0.546,0,0.989-0.444,0.989-0.99v-1.651h2.312c0.175,0,0.329-0.154,0.329-0.331V8.585z M15.847,8.585c0,0.361-0.3,0.66-0.66,0.66
		c-0.363,0-0.661-0.299-0.661-0.66c0-0.362,0.298-0.661,0.661-0.661C15.547,7.925,15.847,8.224,15.847,8.585 M3.96,7.925V1.321
		h6.604v1.651c0,0.546,0.443,0.99,0.99,0.99h1.652v3.962H3.96z M3.96,11.886h9.245v2.642H3.96V11.886z"/>
</g>
</svg>
