<?xml version="1.0" encoding="utf-8"?>
<!-- Generator: Adobe Illustrator 18.1.1, SVG Export Plug-In . SVG Version: 6.00 Build 0)  -->
<svg version="1.1" id="Layer_1" xmlns="http://www.w3.org/2000/svg" xmlns:xlink="http://www.w3.org/1999/xlink" x="0px" y="0px"
	 viewBox="-188 193 23 16" enable-background="new -188 193 23 16" xml:space="preserve">
<g>
	<g>
		<defs>
			<rect id="SVGID_1_" x="-184.3" y="193" width="15.6" height="15.3"/>
		</defs>
		<clipPath id="SVGID_2_">
			<use xlink:href="#SVGID_1_"  overflow="visible"/>
		</clipPath>
		<path clip-path="url(#SVGID_2_)" fill="#233F95" d="M-181.2,200.2l0.5-0.7l-0.3-0.3l0.4-0.5l0.5,0.2l0.4-0.5l-0.3-0.3l0.5-0.5
			l0.4,0.3l0.5-0.5l-0.3-0.4l0.5-0.5l0.4,0.3l0.5-0.4l-0.3-0.3l0.6-0.4l0.3,0.3l0.5-0.3l-0.2-0.3l0.6-0.3l1.1,1.2l-0.4,0.2l-0.4-0.3
			l-0.5,0.3l0.3,0.4l-0.4,0.3l-0.5-0.3l-0.5,0.4l0.4,0.5l-0.5,0.4l-0.4-0.4l-0.5,0.5l0.4,0.4l-0.4,0.4l-0.5-0.4l-0.6,0.6l0.4,0.4
			l-0.4,0.5l-0.5-0.2l-0.4,0.6l0.4,0.4l-0.4,0.5l-1.1-1l0.3-0.4L-181.2,200.2z M-168.9,197.9c0.2-1,0.2-1.7,0.2-2.5
			c0-1.9-0.7-2.4-2.9-2.4c-0.4,0-1.2,0.1-2.1,0.2L-168.9,197.9z M-177.4,207.7c4.4-1.8,6.5-4.1,8-8.1l-6.1-6
			c-4.1,1.6-5.9,3.4-8.1,7.9L-177.4,207.7z M-184.3,205.6c0,2.1,0.7,2.7,3,2.7c0.9,0,1.6-0.1,2.3-0.3l-5-5
			C-184.2,203.9-184.3,204.7-184.3,205.6"/>
	</g>
</g>
</svg>
