<?xml version="1.0" encoding="utf-8"?>
<!-- Generator: Adobe Illustrator 18.1.1, SVG Export Plug-In . SVG Version: 6.00 Build 0)  -->
<svg version="1.1" width="23" height="16" id="Layer_1" xmlns="http://www.w3.org/2000/svg" xmlns:xlink="http://www.w3.org/1999/xlink" x="0px" y="0px"
	 viewBox="-188 193 23 16" enable-background="new -188 193 23 16" xml:space="preserve">
<g>
	<g>
		<defs>
			<rect id="SVGID_1_" x="-185.7" y="193" width="18.3" height="14.7"/>
		</defs>
		<clipPath id="SVGID_2_">
			<use xlink:href="#SVGID_1_"  overflow="visible"/>
		</clipPath>
		<path clip-path="url(#SVGID_2_)" fill="#233F95" d="M-170.3,200.3c-0.9,0-1.1,0.7-1.2,1.1c-0.5,2.3-2.6,4-5,4
			c-1.4,0-2.7-0.6-3.6-1.5c-0.4-0.4-1.1-0.4-1.6,0c-0.4,0.4-0.4,1.1,0,1.6c1.3,1.3,3.2,2.1,5.2,2.1c3.3,0,6.1-2.2,7-5.1h2.2v-2.2
			H-170.3z M-181.5,199.2c0.5-2.3,2.6-4,5-4c1.4,0,2.7,0.6,3.6,1.5c0.4,0.4,1.1,0.4,1.6,0c0.4-0.4,0.4-1.1,0-1.6
			c-1.3-1.3-3.2-2.1-5.2-2.1c-3.3,0-6.1,2.2-7,5.1h-2.2v2.2h2.9C-181.8,200.3-181.6,199.6-181.5,199.2 M-179.4,200.3
			c0,1.6,1.3,2.9,2.9,2.9c1.6,0,2.9-1.3,2.9-2.9c0-1.6-1.3-2.9-2.9-2.9C-178.1,197.4-179.4,198.7-179.4,200.3"/>
	</g>
</g>
</svg>
