<?xml version="1.0" encoding="utf-8"?>
<!-- Generator: Adobe Illustrator 18.1.1, SVG Export Plug-In . SVG Version: 6.00 Build 0)  -->
<svg version="1.1" width="23" height="16" id="Layer_1" xmlns="http://www.w3.org/2000/svg" xmlns:xlink="http://www.w3.org/1999/xlink" x="0px" y="0px"
	 viewBox="-188 193 23 16" enable-background="new -188 193 23 16" xml:space="preserve">
<g>
	<g>
		<defs>
			<rect id="SVGID_1_" x="-182.2" y="193" width="11.4" height="16"/>
		</defs>
		<clipPath id="SVGID_2_">
			<use xlink:href="#SVGID_1_"  overflow="visible"/>
		</clipPath>
		<path clip-path="url(#SVGID_2_)" fill="#233F95" d="M-179,200.8c0.6,0,0.7-0.4,0.7-1.4v-1.8c0-0.8-0.1-1.4-0.7-1.4
			c-0.6,0-0.6,0.5-0.6,1.4v1.9C-179.7,200.2-179.7,200.8-179,200.8 M-172.1,206.5h-8.8v-12.2h8.8V206.5z M-180.9,208.2
			c0,0.4,0.2,0.9,0.7,0.9c0.4,0,0.6-0.3,0.6-0.9v-0.3h6.2v0.5c0,0.4,0.3,0.7,0.7,0.7c0.6,0,0.6-0.4,0.6-0.9v-0.4h0.5
			c0.8,0,0.8-0.4,0.8-1.4v-12.2c0-1.1-0.1-1.3-1.2-1.3h-8.7c-1.4,0-1.5,0.1-1.5,1.3v12.5c0,0.7,0.2,1.1,0.8,1.1h0.4L-180.9,208.2
			L-180.9,208.2z"/>
	</g>
</g>
</svg>
