<?xml version="1.0" encoding="utf-8"?>
<!-- Generator: Adobe Illustrator 15.1.0, SVG Export Plug-In  -->
<!DOCTYPE svg PUBLIC "-//W3C//DTD SVG 1.1//EN" "http://www.w3.org/Graphics/SVG/1.1/DTD/svg11.dtd" [
	<!ENTITY ns_flows "http://ns.adobe.com/Flows/1.0/">
]>
<svg version="1.1"
	 xmlns="http://www.w3.org/2000/svg" xmlns:xlink="http://www.w3.org/1999/xlink" xmlns:a="http://ns.adobe.com/AdobeSVGViewerExtensions/3.0/"
	 x="0px" y="0px" width="23px" height="16px" viewBox="-7.085 -1.541 23 16"
	 overflow="visible" enable-background="new -7.085 -1.541 23 16" xml:space="preserve">
<defs>
</defs>
<g>
	<defs>
		<rect id="SVGID_1_" x="0" width="15.54" height="14.5"/>
	</defs>
	<clipPath id="SVGID_2_">
		<use xlink:href="#SVGID_1_"  overflow="visible"/>
	</clipPath>
	<path clip-path="url(#SVGID_2_)" fill="#233F95" d="M2.105,13.022c-0.163,0.171-0.163,0.448,0,0.62l0.742,0.76
		c0.162,0.171,0.419,0.1,0.583-0.071l3.827-3.946L6.085,8.981L2.105,13.022z M15.495,1.841c-0.057-0.404-0.257-0.32-0.36-0.149
		c-0.104,0.173-0.563,0.902-0.751,1.232c-0.188,0.328-0.65,0.975-1.509,0.336c-0.896-0.664-0.584-1.127-0.429-1.438
		c0.155-0.313,0.637-1.193,0.707-1.301c0.068-0.111-0.011-0.431-0.29-0.297c-0.278,0.134-1.968,0.839-2.201,1.849
		c-0.24,1.028,0.199,1.947-0.663,2.858L8.95,6.077l1.053,1.282l1.29-1.285c0.308-0.324,0.966-0.639,1.56-0.497
		c1.273,0.303,1.969-0.2,2.388-1.029C15.617,3.806,15.554,2.246,15.495,1.841 M6.867,5.127c-0.093-0.114-0.21-0.117-0.31-0.023
		L5.439,6.128C5.351,6.21,5.339,6.361,5.417,6.457l6.472,7.724c0.152,0.183,0.414,0.201,0.587,0.043l0.756-0.665
		c0.174-0.159,0.19-0.438,0.04-0.62L6.867,5.127z M2.414,4.705c0.728-0.593,1.332-0.184,2.138,0.794
		C4.643,5.61,4.764,5.48,4.833,5.417C4.903,5.354,5.965,4.35,6.018,4.303C6.069,4.255,6.131,4.165,6.05,4.064
		c-0.083-0.1-0.386-0.511-0.58-0.778C4.059,1.351,9.328,0.04,8.52,0.018c-0.412-0.01-2.063-0.031-2.312-0.003
		c-1,0.111-2.258,1.092-2.89,1.549C2.489,2.158,2.181,2.507,2.131,2.556C1.896,2.77,2.092,3.265,1.668,3.655
		C1.22,4.067,0.94,3.755,0.68,3.993C0.552,4.113,0.19,4.396,0.087,4.49c-0.103,0.097-0.123,0.257-0.016,0.386
		c0,0,0.987,1.143,1.068,1.244c0.083,0.1,0.306,0.187,0.443,0.059c0.139-0.127,0.493-0.453,0.552-0.51
		C2.195,5.614,2.095,4.963,2.414,4.705"/>
</g>
</svg>
