<?xml version="1.0" encoding="utf-8"?>
<!-- Generator: Adobe Illustrator 15.1.0, SVG Export Plug-In  -->
<!DOCTYPE svg PUBLIC "-//W3C//DTD SVG 1.1//EN" "http://www.w3.org/Graphics/SVG/1.1/DTD/svg11.dtd" [
	<!ENTITY ns_flows "http://ns.adobe.com/Flows/1.0/">
]>
<svg version="1.1"
	 xmlns="http://www.w3.org/2000/svg" xmlns:xlink="http://www.w3.org/1999/xlink" xmlns:a="http://ns.adobe.com/AdobeSVGViewerExtensions/3.0/"
	 x="0px" y="0px" width="23px" height="16px" viewBox="-6.146 0 23 16" overflow="visible" enable-background="new -6.146 0 23 16"
	 xml:space="preserve">
<defs>
</defs>
<g>
	<defs>
		<rect id="SVGID_1_" width="10.708" height="15.984"/>
	</defs>
	<clipPath id="SVGID_2_">
		<use xlink:href="#SVGID_1_"  overflow="visible"/>
	</clipPath>
	<path clip-path="url(#SVGID_2_)" fill="#D0D2D3" d="M1.529,4.793c0.159-2.076,1.616-3.196,3.825-3.196
		c2.207,0,3.561,1.095,3.719,3.173c0.086,1.138-0.539,1.896-1.384,3.138C7.066,8.823,6.461,9.78,6.12,11.188H4.589
		c-0.344-1.407-0.947-2.364-1.57-3.28C2.174,6.665,1.442,5.932,1.529,4.793 M7.417,12.787c0-3.484,3.543-4.675,3.276-8.144
		C10.526,2.456,9.107,0,5.354,0S0.182,2.456,0.015,4.645c-0.266,3.468,3.276,4.658,3.276,8.143L7.417,12.787L7.417,12.787z
		 M3.203,15.322c0.603,0.406,1.3,0.683,2.151,0.66c0.85,0.021,1.55-0.254,2.152-0.66l-0.014-1.736H3.214L3.203,15.322z"/>
</g>
</svg>
