<?xml version="1.0" encoding="utf-8"?>
<!-- Generator: Adobe Illustrator 15.1.0, SVG Export Plug-In  -->
<!DOCTYPE svg PUBLIC "-//W3C//DTD SVG 1.1//EN" "http://www.w3.org/Graphics/SVG/1.1/DTD/svg11.dtd" [
	<!ENTITY ns_flows "http://ns.adobe.com/Flows/1.0/">
]>
<svg version="1.1"
	 xmlns="http://www.w3.org/2000/svg" xmlns:xlink="http://www.w3.org/1999/xlink" xmlns:a="http://ns.adobe.com/AdobeSVGViewerExtensions/3.0/"
	 x="0px" y="0px" width="23px" height="16px" viewBox="-11.203 0 23 16"
	 overflow="visible" enable-background="new -11.203 0 23 16" xml:space="preserve">
<defs>
</defs>
<g>
	<defs>
		<rect id="SVGID_1_" width="11.421" height="16.042"/>
	</defs>
	<clipPath id="SVGID_2_">
		<use xlink:href="#SVGID_1_"  overflow="visible"/>
	</clipPath>
	<path clip-path="url(#SVGID_2_)" fill="#233F95" d="M3.188,7.807c0.647,0,0.667-0.444,0.667-1.408V4.638
		c0-0.834-0.094-1.372-0.723-1.372c-0.647,0-0.647,0.538-0.647,1.354v1.872C2.485,7.234,2.522,7.807,3.188,7.807 M10.107,13.485
		h-8.83V1.296h8.83V13.485z M1.277,15.152c0,0.444,0.167,0.853,0.669,0.853c0.39,0,0.649-0.297,0.649-0.872v-0.314h6.176v0.501
		c0,0.389,0.26,0.723,0.704,0.723c0.555,0,0.632-0.426,0.632-0.854v-0.37h0.48c0.777,0,0.834-0.37,0.834-1.37V1.259
		C11.422,0.187,11.273,0,10.219,0H1.481C0.092,0,0,0.056,0,1.259v12.466c0,0.703,0.222,1.093,0.833,1.093h0.443V15.152z"/>
</g>
</svg>
