<?xml version="1.0" encoding="utf-8"?>
<!-- Generator: Adobe Illustrator 18.1.1, SVG Export Plug-In . SVG Version: 6.00 Build 0)  -->
<svg version="1.1" width="23" height="16" id="Layer_1" xmlns="http://www.w3.org/2000/svg" xmlns:xlink="http://www.w3.org/1999/xlink" x="0px" y="0px"
	 viewBox="-188 193 23 16" enable-background="new -188 193 23 16" xml:space="preserve">
<g>
	<g>
		<defs>
			<rect id="SVGID_1_" x="-184.9" y="193" width="16.8" height="15.7"/>
		</defs>
		<clipPath id="SVGID_2_">
			<use xlink:href="#SVGID_1_"  overflow="visible"/>
		</clipPath>
		<path clip-path="url(#SVGID_2_)" fill="#233F95" d="M-168.7,207h-15.6c-0.3,0-0.6,0.3-0.6,0.6v1.1h16.8v-1.1
			C-168.1,207.2-168.4,207-168.7,207 M-182.7,198.6v6.7h-0.5c-0.3,0-0.6,0.3-0.6,0.6v0.6h14.5v-0.6c0-0.3-0.3-0.6-0.6-0.6h-0.5v-6.7
			h-2.2v6.7h-1.1v-6.7h-2.2v6.7h-1.1v-6.7h-2.2v6.7h-1.1v-6.7H-182.7z M-176.5,193l-8.4,3.4v1.1h1.1c0,0.3,0.3,0.6,0.6,0.6h13.3
			c0.3,0,0.6-0.3,0.6-0.6h1.1v-1.1L-176.5,193z"/>
	</g>
</g>
</svg>
