<?xml version="1.0" encoding="utf-8"?>
<!-- Generator: Adobe Illustrator 18.1.1, SVG Export Plug-In . SVG Version: 6.00 Build 0)  -->
<svg version="1.1" width="23" height="16" id="Layer_1" xmlns="http://www.w3.org/2000/svg" xmlns:xlink="http://www.w3.org/1999/xlink" x="0px" y="0px"
	 viewBox="-188 193 23 16" enable-background="new -188 193 23 16" xml:space="preserve">
<g>
	<g>
		<defs>
			<rect id="SVGID_1_" x="-185.2" y="193" width="17.4" height="14.3"/>
		</defs>
		<clipPath id="SVGID_2_">
			<use xlink:href="#SVGID_1_"  overflow="visible"/>
		</clipPath>
		<path clip-path="url(#SVGID_2_)" fill="#233F95" d="M-169.4,203.7c-1.7,1.5-3,2.6-6.7,0.6c-4.8-2.7-7-0.8-8.8,0.8
			c-0.4,0.4-0.5,1-0.1,1.4c0.3,0.4,1,0.5,1.4,0.1c1.7-1.5,3-2.6,6.7-0.6c1.7,1,3.1,1.4,4.3,1.4c2,0,3.4-1.1,4.5-2.1
			c0.4-0.4,0.5-1,0.1-1.4C-168.4,203.4-169,203.3-169.4,203.7 M-169.4,198.7c-1.7,1.5-3,2.6-6.7,0.6c-4.8-2.7-7-0.8-8.8,0.8
			c-0.4,0.4-0.5,1-0.1,1.4c0.3,0.4,1,0.5,1.4,0.1c1.7-1.5,3-2.6,6.7-0.6c1.7,1,3.1,1.4,4.3,1.4c2,0,3.4-1.1,4.5-2.1
			c0.4-0.4,0.5-1,0.1-1.4C-168.4,198.4-169,198.4-169.4,198.7 M-183.6,196.6c1.7-1.5,3-2.6,6.7-0.6c1.7,1,3.1,1.4,4.3,1.4
			c2,0,3.4-1.1,4.5-2.1c0.4-0.4,0.5-1,0.1-1.4c-0.3-0.4-1-0.5-1.4-0.1c-1.7,1.5-3,2.6-6.7,0.6c-4.8-2.7-7-0.8-8.8,0.8
			c-0.4,0.4-0.5,1-0.1,1.4C-184.6,196.9-184,197-183.6,196.6"/>
	</g>
</g>
</svg>
