<?xml version="1.0" encoding="utf-8"?>
<!-- Generator: Adobe Illustrator 15.1.0, SVG Export Plug-In  -->
<!DOCTYPE svg PUBLIC "-//W3C//DTD SVG 1.1//EN" "http://www.w3.org/Graphics/SVG/1.1/DTD/svg11.dtd" [
	<!ENTITY ns_flows "http://ns.adobe.com/Flows/1.0/">
]>
<svg version="1.1"
	 xmlns="http://www.w3.org/2000/svg" xmlns:xlink="http://www.w3.org/1999/xlink" xmlns:a="http://ns.adobe.com/AdobeSVGViewerExtensions/3.0/"
	 x="0px" y="0px" width="23px" height="16px" viewBox="-3.729 0 23 16" overflow="visible" enable-background="new -3.729 0 23 16"
	 xml:space="preserve">
<defs>
</defs>
<g>
	<defs>
		<rect id="SVGID_1_" x="0" width="15.54" height="14.5"/>
	</defs>
	<clipPath id="SVGID_2_">
		<use xlink:href="#SVGID_1_"  overflow="visible"/>
	</clipPath>
	<path clip-path="url(#SVGID_2_)" fill="#D0D2D3" d="M2.105,13.021c-0.163,0.172-0.163,0.448,0,0.621l0.742,0.76
		c0.162,0.171,0.419,0.1,0.583-0.071l3.827-3.946L6.085,8.98L2.105,13.021z M15.495,1.841c-0.057-0.404-0.256-0.32-0.359-0.149
		c-0.104,0.173-0.562,0.902-0.752,1.232c-0.188,0.328-0.648,0.975-1.508,0.336c-0.896-0.664-0.584-1.127-0.43-1.438
		c0.156-0.313,0.637-1.193,0.707-1.301c0.068-0.111-0.01-0.431-0.289-0.297c-0.279,0.134-1.969,0.839-2.201,1.849
		c-0.24,1.028,0.198,1.947-0.664,2.858L8.95,6.077l1.053,1.282l1.291-1.285c0.308-0.324,0.965-0.639,1.561-0.497
		c1.271,0.303,1.969-0.2,2.387-1.029C15.618,3.806,15.556,2.246,15.495,1.841 M6.868,5.127c-0.093-0.114-0.21-0.117-0.31-0.023
		L5.439,6.128c-0.088,0.082-0.1,0.233-0.022,0.329l6.472,7.725c0.152,0.183,0.414,0.2,0.588,0.043l0.756-0.666
		c0.174-0.158,0.189-0.438,0.039-0.619L6.868,5.127z M2.415,4.705c0.728-0.593,1.332-0.184,2.138,0.794
		C4.644,5.61,4.765,5.48,4.833,5.417c0.07-0.063,1.132-1.067,1.185-1.114C6.069,4.255,6.131,4.165,6.05,4.064
		c-0.083-0.1-0.386-0.511-0.58-0.778C4.06,1.351,9.329,0.04,8.521,0.018c-0.412-0.01-2.063-0.031-2.312-0.003
		c-1,0.111-2.258,1.092-2.89,1.549C2.489,2.158,2.182,2.507,2.131,2.556C1.896,2.77,2.092,3.265,1.668,3.655
		c-0.448,0.412-0.728,0.1-0.988,0.338C0.552,4.113,0.19,4.396,0.087,4.49c-0.103,0.097-0.123,0.257-0.016,0.386
		c0,0,0.987,1.143,1.068,1.244c0.083,0.1,0.306,0.187,0.443,0.059c0.139-0.127,0.493-0.453,0.552-0.51
		C2.195,5.614,2.096,4.963,2.415,4.705"/>
</g>
</svg>
