<?xml version="1.0" encoding="utf-8"?>
<!-- Generator: Adobe Illustrator 18.1.1, SVG Export Plug-In . SVG Version: 6.00 Build 0)  -->
<svg version="1.1" width="23" height="16" id="Layer_1" xmlns="http://www.w3.org/2000/svg" xmlns:xlink="http://www.w3.org/1999/xlink" x="0px" y="0px"
	 viewBox="-188 193 23 16" enable-background="new -188 193 23 16" xml:space="preserve">
<g>
	<g>
		<defs>
			<polygon id="SVGID_1_" points="-184.1,209 -168.9,209 -168.9,193 -184.1,193 			"/>
		</defs>
		<clipPath id="SVGID_2_">
			<use xlink:href="#SVGID_1_"  overflow="visible"/>
		</clipPath>
		<path clip-path="url(#SVGID_2_)" fill="#233F95" d="M-174.7,203.9c-0.2,2.1-1.9,3.7-4,3.7c-2.2,0-4-1.9-4-4.2
			c0-1.3,0.6-2.5,1.5-3.2v-1.8c-1.7,1-2.9,2.8-2.9,5c0,3.1,2.4,5.6,5.4,5.6c2.3,0,4.2-1.5,5-3.5L-174.7,203.9z"/>
	</g>
	<g>
		<defs>
			<polygon id="SVGID_3_" points="-184.1,209 -168.9,209 -168.9,193 -184.1,193 			"/>
		</defs>
		<clipPath id="SVGID_4_">
			<use xlink:href="#SVGID_3_"  overflow="visible"/>
		</clipPath>
		<path clip-path="url(#SVGID_4_)" fill="#233F95" d="M-169.6,204.9l-1.1,0.8l-2.9-5l-5.5,0v-1.2h2.9v-1.3h-2.9v-1.6
			c0.7-0.3,1.2-1,1.2-1.8c0-1-0.8-1.9-1.8-1.9s-1.8,0.8-1.8,1.9c0,0.8,0.5,1.5,1.2,1.8v5.3l6.1,0l3.1,5.5l2.2-1.5L-169.6,204.9z"/>
	</g>
</g>
</svg>
