<?xml version="1.0" encoding="utf-8"?>
<!-- Generator: Adobe Illustrator 18.1.1, SVG Export Plug-In . SVG Version: 6.00 Build 0)  -->
<svg version="1.1" width="23" height="16" id="Layer_1" xmlns="http://www.w3.org/2000/svg" xmlns:xlink="http://www.w3.org/1999/xlink" x="0px" y="0px"
	 viewBox="-188 193 23 16" enable-background="new -188 193 23 16" xml:space="preserve">
<g>
	<g>
		<defs>
			<rect id="SVGID_1_" x="-183.3" y="193" width="13.6" height="15.9"/>
		</defs>
		<clipPath id="SVGID_2_">
			<use xlink:href="#SVGID_1_"  overflow="visible"/>
		</clipPath>
		<path clip-path="url(#SVGID_2_)" fill="#233F95" d="M-169.7,200.4c0-1.6-1-2.8-2.7-2.8c-0.4-0.3-1-0.5-1.6-0.5c-0.1,0-0.3,0-0.4,0
			c-0.3-0.2-0.7-0.3-1.1-0.3v-1.5c0-1.2-1-2.3-2.3-2.3c-1.2,0-2.3,1-2.3,2.3v3.3c-0.4-0.1-0.7-0.2-1.1-0.2c-1.5,0-2.3,1.1-2.3,2.6
			c0,1.2,1.5,1.6,2.3,2.1c0.4,0.3,0.8,0.6,1.1,0.9c0.3,0.3,1.1,0.9,1.1,1.3v2.6c0,0.6,0.5,1.1,1.1,1.1h5.7c0.6,0,1.1-0.5,1.1-1.1
			v-2.6c0-0.6,0.3-1.4,0.5-2C-170,202.3-169.7,201.4-169.7,200.4 M-170.8,200.4c0,1.7-1.1,3.2-1.1,4.8v0.3h-5.7v-0.3
			c0-0.9-0.8-1.6-1.4-2.1c-0.4-0.4-0.8-0.7-1.3-1c-0.2-0.1-0.4-0.2-0.6-0.3c-0.2-0.1-1.2-0.6-1.2-0.8c0-0.8,0.3-1.4,1.1-1.4
			c1.1,0,1.7,0.9,2.3,0.9v-5.1c0-0.6,0.5-1.1,1.1-1.1c0.6,0,1.1,0.5,1.1,1.1v2.9c0.2-0.2,0.6-0.3,0.9-0.3c0.4,0,0.8,0.2,1.1,0.5
			c0.2-0.1,0.4-0.2,0.6-0.2c0.4,0,0.9,0.2,1.1,0.6c0.2,0,0.3,0,0.5,0C-171.2,198.7-170.8,199.4-170.8,200.4L-170.8,200.4z
			 M-172,207.2c0,0.3-0.3,0.6-0.6,0.6s-0.6-0.3-0.6-0.6s0.3-0.6,0.6-0.6S-172,206.9-172,207.2"/>
	</g>
</g>
</svg>
