<?xml version="1.0" encoding="utf-8"?>
<!-- Generator: Adobe Illustrator 18.1.1, SVG Export Plug-In . SVG Version: 6.00 Build 0)  -->
<svg version="1.1" id="Layer_1" xmlns="http://www.w3.org/2000/svg" xmlns:xlink="http://www.w3.org/1999/xlink" x="0px" y="0px"
	 viewBox="-188 193 23 16" enable-background="new -188 193 23 16" xml:space="preserve">
<g>
	<g>
		<defs>
			<rect id="SVGID_1_" x="-183.6" y="193" width="14.2" height="16"/>
		</defs>
		<clipPath id="SVGID_2_">
			<use xlink:href="#SVGID_1_"  overflow="visible"/>
		</clipPath>
		<path clip-path="url(#SVGID_2_)" fill="#233F95" d="M-176.5,208.7c-0.6,0-1.3,0.4-2.5,0.3c-1.1-0.1-3.2-2.2-4.3-5.8
			c-1.1-3.7,1.3-6.2,3.3-6.5c1.9-0.2,2.8,0.5,3.1,0.8c0.3,0.3,0.5,0.2,0.8,0c0.3-0.2,1-1,3.1-0.8c2.1,0.2,4.5,2.8,3.3,6.5
			c-1.1,3.7-3.2,5.7-4.3,5.8C-175.2,209-175.9,208.7-176.5,208.7"/>
	</g>
	<g>
		<defs>
			<rect id="SVGID_3_" x="-183.6" y="193" width="14.2" height="16"/>
		</defs>
		<clipPath id="SVGID_4_">
			<use xlink:href="#SVGID_3_"  overflow="visible"/>
		</clipPath>
		<path clip-path="url(#SVGID_4_)" fill="#233F95" d="M-182.8,193.2c0,0,1.8-0.6,3.4,0.2c1.1,0.5,2.3,3,2.3,3s-1.1-0.8-2.8-0.5
			C-181.7,196.2-182.6,194-182.8,193.2"/>
	</g>
</g>
<polygon fill="#233F95" points="-177.4,196.6 -177.4,193.8 -175.6,194.3 "/>
</svg>
