<?xml version="1.0" encoding="utf-8"?>
<!-- Generator: Adobe Illustrator 18.1.1, SVG Export Plug-In . SVG Version: 6.00 Build 0)  -->
<svg version="1.1" width="23" height="16" id="Layer_1" xmlns="http://www.w3.org/2000/svg" xmlns:xlink="http://www.w3.org/1999/xlink" x="0px" y="0px"
	 viewBox="-188 193 23 16" enable-background="new -188 193 23 16" xml:space="preserve">
<g>
	<g>
		<defs>
			<rect id="SVGID_1_" x="-185.1" y="193" width="17.2" height="15.8"/>
		</defs>
		<clipPath id="SVGID_2_">
			<use xlink:href="#SVGID_1_"  overflow="visible"/>
		</clipPath>
		<path clip-path="url(#SVGID_2_)" fill="#233F95" d="M-167.9,201.6c0-1.1-0.9-2-2-2h-0.7V197c0-0.5-0.3-1.3-0.7-1.7l-1.6-1.6
			c-0.4-0.4-1.1-0.7-1.7-0.7h-6.9c-0.5,0-1,0.4-1,1v5.6h-0.7c-1.1,0-2,0.9-2,2v4.3c0,0.2,0.2,0.3,0.3,0.3h2.3v1.7c0,0.5,0.4,1,1,1
			h9.9c0.5,0,1-0.4,1-1v-1.7h2.3c0.2,0,0.3-0.2,0.3-0.3C-167.9,205.9-167.9,201.6-167.9,201.6z M-169.2,201.6c0,0.4-0.3,0.7-0.7,0.7
			c-0.4,0-0.7-0.3-0.7-0.7c0-0.4,0.3-0.7,0.7-0.7C-169.5,200.9-169.2,201.2-169.2,201.6 M-181.1,200.9v-6.6h6.6v1.7c0,0.5,0.4,1,1,1
			h1.7v4L-181.1,200.9L-181.1,200.9z M-181.1,204.9h9.2v2.6h-9.2V204.9z"/>
	</g>
</g>
</svg>
