<?xml version="1.0" encoding="utf-8"?>
<!-- Generator: Adobe Illustrator 18.1.1, SVG Export Plug-In . SVG Version: 6.00 Build 0)  -->
<svg version="1.1" width="23" height="16" id="Layer_1" xmlns="http://www.w3.org/2000/svg" xmlns:xlink="http://www.w3.org/1999/xlink" x="0px" y="0px"
	 viewBox="-188 193 23 16" enable-background="new -188 193 23 16" xml:space="preserve">
<g>
	<g>
		<defs>
			<rect id="SVGID_1_" x="-186.8" y="193" width="20.5" height="13.7"/>
		</defs>
		<clipPath id="SVGID_2_">
			<use xlink:href="#SVGID_1_"  overflow="visible"/>
		</clipPath>
		<path clip-path="url(#SVGID_2_)" fill="#233F95" d="M-166.2,196.4c0-0.1-0.1-0.2-0.2-0.3l-10-3.1c0,0-0.1,0-0.1,0c0,0-0.1,0-0.1,0
			l-10,3.1c-0.1,0-0.2,0.2-0.2,0.3c0,0.1,0.1,0.2,0.2,0.3l3,0.9c-0.6,0.8-0.8,1.9-0.9,2.9c-0.3,0.2-0.6,0.6-0.6,1
			c0,0.4,0.2,0.7,0.5,1l-0.5,3.9c0,0.1,0,0.2,0.1,0.2c0.1,0.1,0.1,0.1,0.2,0.1h1.7c0.1,0,0.2,0,0.2-0.1c0.1-0.1,0.1-0.1,0.1-0.2
			l-0.5-3.9c0.3-0.2,0.5-0.6,0.5-1c0-0.4-0.2-0.8-0.6-1c0.1-1.2,0.4-2.2,0.9-2.6l5.8,1.8c0,0,0.1,0,0.1,0s0.1,0,0.1,0l10-3.1
			C-166.3,196.6-166.2,196.5-166.2,196.4 M-171,199.3l-5.1,1.6c-0.1,0-0.3,0.1-0.4,0.1c-0.1,0-0.3,0-0.4-0.1l-5.1-1.6l-0.2,2.8
			c-0.1,1.3,2.6,2.3,5.7,2.3c3.1,0,5.8-1,5.7-2.3L-171,199.3z"/>
	</g>
</g>
</svg>
