<?xml version="1.0" encoding="utf-8"?>
<!-- Generator: Adobe Illustrator 15.1.0, SVG Export Plug-In  -->
<!DOCTYPE svg PUBLIC "-//W3C//DTD SVG 1.1//EN" "http://www.w3.org/Graphics/SVG/1.1/DTD/svg11.dtd" [
	<!ENTITY ns_flows "http://ns.adobe.com/Flows/1.0/">
]>
<svg version="1.1"
	 xmlns="http://www.w3.org/2000/svg" xmlns:xlink="http://www.w3.org/1999/xlink" xmlns:a="http://ns.adobe.com/AdobeSVGViewerExtensions/3.0/"
	 x="0px" y="0px" width="23px" height="16px" viewBox="-7.992 0 23 16" overflow="visible" enable-background="new -7.992 0 23 16"
	 xml:space="preserve">
<defs>
</defs>
<g>
	<defs>
		<rect id="SVGID_1_" width="14.633" height="16.042"/>
	</defs>
	<clipPath id="SVGID_2_">
		<use xlink:href="#SVGID_1_"  overflow="visible"/>
	</clipPath>
	<path clip-path="url(#SVGID_2_)" fill="#233F95" d="M14.633,8.352c0-0.734-0.049-1.279-0.22-1.996l-1-4.064
		C13.233,0.86,10.565,0,7.316,0S1.399,0.86,1.218,2.292l-0.98,4.064C0.067,7.073,0,7.618,0,8.352v5.399h1.218v1.146
		c0,0.636,0.543,1.146,1.22,1.146c0.676,0,1.219-0.511,1.219-1.146v-1.146h7.319v1.146c0,0.636,0.542,1.146,1.218,1.146
		c0.677,0,1.22-0.511,1.22-1.146v-1.146h1.22V8.352z M10.823,1.862c0,0.242-0.199,0.43-0.457,0.43H4.267
		c-0.248,0-0.457-0.188-0.457-0.43s0.208-0.43,0.458-0.43h6.096C10.624,1.433,10.823,1.621,10.823,1.862L10.823,1.862z
		 M12.975,7.341c0.067,0.358-0.218,0.68-0.599,0.68H2.258c-0.381,0-0.667-0.322-0.6-0.68l0.685-3.438
		c0.057-0.268,0.305-0.464,0.6-0.464h8.747c0.295,0,0.541,0.197,0.599,0.464L12.975,7.341L12.975,7.341z M13.414,10.886
		c0,0.636-0.543,1.146-1.22,1.146c-0.676,0-1.218-0.511-1.218-1.146s0.542-1.146,1.218-1.146
		C12.871,9.739,13.414,10.25,13.414,10.886 M3.657,10.886c0,0.636-0.543,1.146-1.219,1.146c-0.677,0-1.22-0.511-1.22-1.146
		s0.543-1.146,1.22-1.146C3.114,9.739,3.657,10.25,3.657,10.886"/>
</g>
</svg>
