<?xml version="1.0" encoding="utf-8"?>
<!-- Generator: Adobe Illustrator 15.1.0, SVG Export Plug-In  -->
<!DOCTYPE svg PUBLIC "-//W3C//DTD SVG 1.1//EN" "http://www.w3.org/Graphics/SVG/1.1/DTD/svg11.dtd" [
	<!ENTITY ns_flows "http://ns.adobe.com/Flows/1.0/">
]>
<svg version="1.1"
	 xmlns="http://www.w3.org/2000/svg" xmlns:xlink="http://www.w3.org/1999/xlink" xmlns:a="http://ns.adobe.com/AdobeSVGViewerExtensions/3.0/"
	 x="0px" y="0px" width="23px" height="16px" viewBox="-4.675 -1.283 23 16"
	 overflow="visible" enable-background="new -4.675 -1.283 23 16" xml:space="preserve">
<defs>
</defs>
<g>
	<defs>
		<rect id="SVGID_1_" width="17.95" height="14.759"/>
	</defs>
	<clipPath id="SVGID_2_">
		<use xlink:href="#SVGID_1_"  overflow="visible"/>
	</clipPath>
	<path clip-path="url(#SVGID_2_)" fill="#233F95" d="M17.949,5.271c0-0.198-0.162-0.352-0.373-0.352h-5.143
		c1.449,0,2.617-1.099,2.617-2.46S13.883,0,12.434,0c-0.782,0-1.506,0.308-1.962,0.846L8.975,2.657L7.479,0.846
		C7.022,0.308,6.298,0,5.517,0C4.065,0,2.898,1.099,2.898,2.46s1.167,2.46,2.618,2.46H0.375C0.164,4.92,0,5.073,0,5.271v3.514
		c0,0.198,0.163,0.351,0.374,0.351h1.121v4.568c0,0.582,0.503,1.055,1.122,1.055h12.714c0.619,0,1.121-0.473,1.121-1.055V9.136
		h1.123c0.211,0,0.373-0.152,0.373-0.351V5.271z M13.557,2.46c0,0.582-0.503,1.055-1.123,1.055h-2.266l1.459-1.769
		c0.129-0.143,0.41-0.34,0.807-0.34C13.054,1.406,13.557,1.878,13.557,2.46 M5.517,3.515c-0.62,0-1.124-0.473-1.124-1.055
		s0.504-1.054,1.124-1.054c0.397,0,0.677,0.197,0.805,0.34l1.473,1.769H5.517z M10.846,12.782c0,0.384-0.34,0.571-0.748,0.571H7.853
		c-0.409,0-0.748-0.188-0.748-0.571v-0.615V7.028V4.92h3.741v2.108v5.139V12.782z"/>
</g>
</svg>
