<?xml version="1.0" encoding="utf-8"?>
<!-- Generator: Adobe Illustrator 15.1.0, SVG Export Plug-In  -->
<!DOCTYPE svg PUBLIC "-//W3C//DTD SVG 1.1//EN" "http://www.w3.org/Graphics/SVG/1.1/DTD/svg11.dtd" [
	<!ENTITY ns_flows "http://ns.adobe.com/Flows/1.0/">
]>
<svg version="1.1"
	 xmlns="http://www.w3.org/2000/svg" xmlns:xlink="http://www.w3.org/1999/xlink" xmlns:a="http://ns.adobe.com/AdobeSVGViewerExtensions/3.0/"
	 x="0px" y="0px" width="23px" height="16px" viewBox="16.967 0 23 16" overflow="visible" enable-background="new 16.967 0 23 16"
	 xml:space="preserve">
<defs>
</defs>
<g>
	<defs>
		<rect id="SVGID_2_" x="20" y="0.001" width="16.934" height="16.042"/>
	</defs>
	<clipPath id="SVGID_3_">
		<use xlink:href="#SVGID_2_"  overflow="visible"/>
	</clipPath>
	<path clip-path="url(#SVGID_3_)" fill="#D0D2D3" d="M30.249,0c-0.741,0-1.337,0.596-1.337,1.338c0,0.74,0.596,1.336,1.337,1.336
		c0.739,0,1.337-0.597,1.337-1.336C31.586,0.596,30.988,0,30.249,0 M31.547,3.081c-0.025,0-0.049,0.004-0.072,0.011
		c-0.154,0.05-0.26,0.259-0.334,0.473l-1.754,5.069l-2.869,0.892l-2.145-3.398c-0.146-0.235-0.296-0.34-0.428-0.34
		c-0.15,0-0.279,0.135-0.352,0.368l-1.755,4.846L20,11.586l0.501,1.615l4.149-1.311l-1.81,2.116c-0.275,0.269-0.184,0.724,0,0.92
		c0.129,0.14,0.317,0.234,0.515,0.234c0.165,0,0.338-0.068,0.488-0.234c0,0,3.322-3.809,3.307-3.809c0,0-0.008,0.007-0.021,0.021
		v-0.027l1.339-0.418l-2.229,5.348h5.348l-2.172-5.652l1.31-0.42l3.396,2.396c0.11,0.074,0.246,0.111,0.384,0.111
		c0.28,0,0.566-0.156,0.646-0.474c0.119-0.461-0.135-0.668-0.418-0.862L32.338,9.47l4.596-1.448l-0.502-1.616l-1.839,0.585
		C33.964,5.905,32.449,4,32.087,3.538C31.872,3.207,31.691,3.081,31.547,3.081 M24.902,2.674c-0.74,0-1.336,0.596-1.336,1.337
		c0,0.741,0.596,1.337,1.336,1.337c0.74,0,1.336-0.596,1.336-1.337C26.238,3.27,25.642,2.674,24.902,2.674"/>
</g>
<g>
	<defs>
		<rect id="SVGID_1_" x="20" y="0.001" width="16.934" height="16.042"/>
	</defs>
	<clipPath id="SVGID_4_">
		<use xlink:href="#SVGID_1_"  overflow="visible"/>
	</clipPath>
	<path clip-path="url(#SVGID_4_)" fill="#D0D2D3" d="M11.475,3.092c-0.154,0.05-0.259,0.259-0.334,0.474L9.387,8.634l-2.87,0.892
		L4.373,6.128C4.061,5.624,3.73,5.719,3.593,6.156l-1.755,4.846L0,11.586l0.502,1.615l4.149-1.309L2.84,14.007
		c-0.274,0.267-0.185,0.724,0,0.92c0.239,0.257,0.674,0.363,1.003,0c0,0,3.606-4.136,3.286-3.786v-0.029l1.337-0.418l-2.228,5.349
		h5.347l-2.172-5.653l1.31-0.418l3.396,2.396c0.335,0.228,0.909,0.11,1.03-0.361c0.119-0.461-0.135-0.667-0.416-0.862L12.339,9.47
		l4.595-1.449l-0.5-1.615l-1.84,0.585c-0.63-1.086-2.146-2.99-2.506-3.453C11.832,3.149,11.63,3.043,11.475,3.092 M4.901,2.674
		c-0.74,0-1.336,0.596-1.336,1.337c0,0.741,0.596,1.337,1.336,1.337c0.741,0,1.337-0.596,1.337-1.337
		C6.238,3.27,5.643,2.674,4.901,2.674 M10.249,0.001c-0.74,0-1.337,0.596-1.337,1.336c0,0.742,0.597,1.337,1.337,1.337
		c0.739,0,1.337-0.596,1.337-1.337C11.586,0.597,10.988,0.001,10.249,0.001"/>
</g>
</svg>
