<?xml version="1.0" encoding="utf-8"?>
<!-- Generator: Adobe Illustrator 15.1.0, SVG Export Plug-In  -->
<!DOCTYPE svg PUBLIC "-//W3C//DTD SVG 1.1//EN" "http://www.w3.org/Graphics/SVG/1.1/DTD/svg11.dtd" [
	<!ENTITY ns_flows "http://ns.adobe.com/Flows/1.0/">
]>
<svg version="1.1"
	 xmlns="http://www.w3.org/2000/svg" xmlns:xlink="http://www.w3.org/1999/xlink" xmlns:a="http://ns.adobe.com/AdobeSVGViewerExtensions/3.0/"
	 x="0px" y="0px" width="23px" height="16px" viewBox="-3.912 0 23 16" overflow="visible" enable-background="new -3.912 0 23 16"
	 xml:space="preserve">
<defs>
</defs>
<g>
	<defs>
		<polygon id="SVGID_2_" points="0,16.042 15.176,16.042 15.176,0 0,0.021 		"/>
	</defs>
	<clipPath id="SVGID_3_">
		<use xlink:href="#SVGID_2_"  overflow="visible"/>
	</clipPath>
	<path clip-path="url(#SVGID_3_)" fill="#D0D2D3" d="M9.425,10.909c-0.241,2.067-1.939,3.674-3.995,3.674
		c-2.219,0-4.024-1.874-4.024-4.179c0-1.295,0.57-2.453,1.463-3.22v-1.75C1.163,6.387,0,8.256,0,10.404
		c0,3.109,2.436,5.638,5.43,5.638c2.271,0,4.22-1.456,5.029-3.517L9.425,10.909z"/>
</g>
<g>
	<defs>
		<polygon id="SVGID_1_" points="0,16.042 15.176,16.042 15.176,0 0,0.021 		"/>
	</defs>
	<clipPath id="SVGID_4_">
		<use xlink:href="#SVGID_1_"  overflow="visible"/>
	</clipPath>
	<path clip-path="url(#SVGID_4_)" fill="#D0D2D3" d="M14.507,11.95l-1.12,0.803l-2.881-5.008l-5.53,0.034V6.59h2.928V5.313H4.976
		V3.666c0.684-0.27,1.171-0.955,1.171-1.76c0-1.041-0.812-1.885-1.814-1.885S2.519,0.865,2.519,1.906
		c0,0.827,0.514,1.529,1.229,1.781V9.02l6.077,0.008l3.149,5.478l2.201-1.485L14.507,11.95z"/>
</g>
</svg>
