<?xml version="1.0" encoding="utf-8"?>
<!-- Generator: Adobe Illustrator 18.1.1, SVG Export Plug-In . SVG Version: 6.00 Build 0)  -->
<svg version="1.1" width="23" height="16" id="Layer_1" xmlns="http://www.w3.org/2000/svg" xmlns:xlink="http://www.w3.org/1999/xlink" x="0px" y="0px"
	 viewBox="-188 193 23 16" enable-background="new -188 193 23 16" xml:space="preserve">
<g>
	<g>
		<defs>
			<rect id="SVGID_1_" x="-182.9" y="193" width="12.8" height="16"/>
		</defs>
		<clipPath id="SVGID_2_">
			<use xlink:href="#SVGID_1_"  overflow="visible"/>
		</clipPath>
		<path clip-path="url(#SVGID_2_)" fill="#233F95" d="M-179.9,205.9l0.6-2.2h5.7l0.6,2.2H-179.9z M-170.5,198.9h-11.9
			c-0.2,0-0.5,0.2-0.5,0.5v0.5c0,0.2,0.1,0.4,0.3,0.4c0,0.6,0.1,1.5,0.7,2.2c0.3,0.4,0.7,0.6,1.3,0.7v0c0,0.2,0.1,0.3,0.2,0.4
			l-1.3,5c-0.1,0.2,0.1,0.5,0.3,0.5h0.2c0.2,0,0.5-0.2,0.6-0.5l0.5-1.7c0,0,0,0,0,0h7.4l0.5,1.7c0.1,0.2,0.3,0.5,0.6,0.5h0.2
			c0.2,0,0.4-0.2,0.3-0.5l-1.3-5c0.1-0.1,0.2-0.2,0.2-0.4v-0.5c0-0.2-0.2-0.5-0.4-0.5h-7.4c-0.1,0-0.2,0.1-0.3,0.1
			c-0.3-0.1-0.6-0.2-0.8-0.4c-0.4-0.5-0.5-1.2-0.5-1.6h1.5v0.7c0,0.2,0.2,0.5,0.5,0.5h6.6c0.2,0,0.4-0.2,0.4-0.5v-0.7h2.2
			c0.2,0,0.5-0.2,0.5-0.5v-0.5C-170.1,199.1-170.3,198.9-170.5,198.9"/>
	</g>
	<g>
		<defs>
			<rect id="SVGID_3_" x="-182.9" y="193" width="12.8" height="16"/>
		</defs>
		<clipPath id="SVGID_4_">
			<use xlink:href="#SVGID_3_"  overflow="visible"/>
		</clipPath>
		<path clip-path="url(#SVGID_4_)" fill="#233F95" d="M-173.2,193.5c0-0.2-0.2-0.5-0.5-0.5h-5.7c-0.2,0-0.5,0.2-0.5,0.5l-0.2,4.8
			h7.1L-173.2,193.5z"/>
	</g>
</g>
</svg>
