<?xml version="1.0" encoding="utf-8"?>
<!-- Generator: Adobe Illustrator 18.1.1, SVG Export Plug-In . SVG Version: 6.00 Build 0)  -->
<svg version="1.1" width="23" height="16" id="Layer_1" xmlns="http://www.w3.org/2000/svg" xmlns:xlink="http://www.w3.org/1999/xlink" x="0px" y="0px"
	 viewBox="-188 193 23 16" enable-background="new -188 193 23 16" xml:space="preserve">
<g>
	<g>
		<defs>
			<rect id="SVGID_1_" x="-186.1" y="193" width="19.2" height="15.3"/>
		</defs>
		<clipPath id="SVGID_2_">
			<use xlink:href="#SVGID_1_"  overflow="visible"/>
		</clipPath>
		<path clip-path="url(#SVGID_2_)" fill="#233F95" d="M-170.8,203c0,0-1.6-0.4-1.6-1.3c0-0.8,1.1-1.1,1.1-2.8c0-1.3-0.4-2.1-1.7-2.1
			c-1.3,0-1.7,0.8-1.7,2.1c0,1.6,1,2,1,2.8c0,0.8-1.6,1.3-1.6,1.3c-0.1,0-0.1,1.3-0.1,1.3h4.8C-170.7,204.4-170.7,203-170.8,203
			 M-177.5,196.9h-4.8v1.7h4.8V196.9z M-177.5,199.8h-4.8v1.7h4.8V199.8z M-177.5,202.7h-4.8v1.7h4.8V202.7z M-168.8,206.4h-15.3
			v-11.5h15.3V206.4z M-168.8,193h-15.3c-1,0-1.9,0.8-1.9,1.9v11.5c0,1,0.9,1.9,1.9,1.9h15.3c1.1,0,1.9-0.9,1.9-1.9v-11.5
			C-166.9,193.8-167.8,193-168.8,193"/>
	</g>
</g>
</svg>
