<?xml version="1.0" encoding="utf-8"?>
<!-- Generator: Adobe Illustrator 18.1.1, SVG Export Plug-In . SVG Version: 6.00 Build 0)  -->
<svg version="1.1" id="Layer_1" xmlns="http://www.w3.org/2000/svg" xmlns:xlink="http://www.w3.org/1999/xlink" x="0px" y="0px"
	 viewBox="-188 193 23 16" enable-background="new -188 193 23 16" xml:space="preserve">
<g>
	<g>
		<defs>
			<rect id="SVGID_1_" x="-185.6" y="193" width="18.2" height="15.6"/>
		</defs>
		<clipPath id="SVGID_2_">
			<use xlink:href="#SVGID_1_"  overflow="visible"/>
		</clipPath>
		<path clip-path="url(#SVGID_2_)" fill="#233F95" d="M-167.4,204.4c0-0.5-0.4-1-1-1h-1v-2c0-0.7-0.6-1.3-1.3-1.3h-5.2v-2h1
			c0.5,0,1-0.4,1-1V194c0-0.5-0.4-1-1-1h-3.3c-0.5,0-1,0.4-1,1v3.3c0,0.5,0.4,1,1,1h1v2h-5.2c-0.7,0-1.3,0.6-1.3,1.3v2h-1
			c-0.5,0-1,0.4-1,1v3.3c0,0.5,0.4,1,1,1h3.3c0.5,0,1-0.4,1-1v-3.3c0-0.5-0.4-1-1-1h-1v-2h5.2v2h-1c-0.5,0-1,0.4-1,1v3.3
			c0,0.5,0.4,1,1,1h3.3c0.5,0,1-0.4,1-1v-3.3c0-0.5-0.4-1-1-1h-1v-2h5.2v2h-1c-0.5,0-1,0.4-1,1v3.3c0,0.5,0.4,1,1,1h3.3
			c0.5,0,1-0.4,1-1C-167.4,207.7-167.4,204.4-167.4,204.4z"/>
	</g>
</g>
</svg>
