<?xml version="1.0" encoding="utf-8"?>
<!-- Generator: Adobe Illustrator 18.1.1, SVG Export Plug-In . SVG Version: 6.00 Build 0)  -->
<svg version="1.1" width="23" height="16" id="Layer_1" xmlns="http://www.w3.org/2000/svg" xmlns:xlink="http://www.w3.org/1999/xlink" x="0px" y="0px"
	 viewBox="-188 193 23 16" enable-background="new -188 193 23 16" xml:space="preserve">
<g>
	<g>
		<defs>
			<rect id="SVGID_1_" x="-183.9" y="193" width="14.7" height="16"/>
		</defs>
		<clipPath id="SVGID_2_">
			<use xlink:href="#SVGID_1_"  overflow="visible"/>
		</clipPath>
		<path clip-path="url(#SVGID_2_)" fill="#233F95" d="M-172.5,197c0-2.2-1.8-4-4-4s-4,1.8-4,4c0,2.2,1.8,4,4,4
			S-172.5,199.2-172.5,197 M-169.1,206.3c0-2.4-0.6-6-3.6-6c-0.3,0-1.7,1.5-3.7,1.5c-2,0-3.4-1.5-3.7-1.5c-3.1,0-3.6,3.6-3.6,6
			c0,1.7,1.1,2.7,2.8,2.7h9.1C-170.3,209-169.1,208-169.1,206.3"/>
	</g>
</g>
</svg>
