<?xml version="1.0" encoding="utf-8"?>
<!-- Generator: Adobe Illustrator 18.1.1, SVG Export Plug-In . SVG Version: 6.00 Build 0)  -->
<svg version="1.1" width="23" height="16" id="Layer_1" xmlns="http://www.w3.org/2000/svg" xmlns:xlink="http://www.w3.org/1999/xlink" x="0px" y="0px"
	 viewBox="-188 193 23 16" enable-background="new -188 193 23 16" xml:space="preserve">
<g>
	<g>
		<defs>
			<rect id="SVGID_1_" x="-183.8" y="193" width="14.6" height="16"/>
		</defs>
		<clipPath id="SVGID_2_">
			<use xlink:href="#SVGID_1_"  overflow="visible"/>
		</clipPath>
		<path clip-path="url(#SVGID_2_)" fill="#233F95" d="M-169.2,201.4c0-0.7,0-1.3-0.2-2l-1-4.1c-0.2-1.4-2.8-2.3-6.1-2.3
			c-3.2,0-5.9,0.9-6.1,2.3l-1,4.1c-0.2,0.7-0.2,1.3-0.2,2v5.4h1.2v1.1c0,0.6,0.5,1.1,1.2,1.1c0.7,0,1.2-0.5,1.2-1.1v-1.1h7.3v1.1
			c0,0.6,0.5,1.1,1.2,1.1c0.7,0,1.2-0.5,1.2-1.1v-1.1h1.2L-169.2,201.4L-169.2,201.4z M-173,194.9c0,0.2-0.2,0.4-0.5,0.4h-6.1
			c-0.2,0-0.5-0.2-0.5-0.4s0.2-0.4,0.5-0.4h6.1C-173.2,194.4-173,194.6-173,194.9L-173,194.9z M-170.8,200.3
			c0.1,0.4-0.2,0.7-0.6,0.7h-10.1c-0.4,0-0.7-0.3-0.6-0.7l0.7-3.4c0.1-0.3,0.3-0.5,0.6-0.5h8.7c0.3,0,0.5,0.2,0.6,0.5L-170.8,200.3
			L-170.8,200.3z M-170.4,203.9c0,0.6-0.5,1.1-1.2,1.1c-0.7,0-1.2-0.5-1.2-1.1s0.5-1.1,1.2-1.1
			C-170.9,202.7-170.4,203.2-170.4,203.9 M-180.2,203.9c0,0.6-0.5,1.1-1.2,1.1c-0.7,0-1.2-0.5-1.2-1.1s0.5-1.1,1.2-1.1
			C-180.7,202.7-180.2,203.2-180.2,203.9"/>
	</g>
</g>
</svg>
