<?xml version="1.0" encoding="utf-8"?>
<!-- Generator: Adobe Illustrator 18.1.1, SVG Export Plug-In . SVG Version: 6.00 Build 0)  -->
<svg version="1.1" width="23" height="16" id="Layer_1" xmlns="http://www.w3.org/2000/svg" xmlns:xlink="http://www.w3.org/1999/xlink" x="0px" y="0px"
	 viewBox="-188 193 23 16" enable-background="new -188 193 23 16" xml:space="preserve">
<g>
	<g>
		<defs>
			<rect id="SVGID_1_" x="-184" y="193" width="15" height="15"/>
		</defs>
		<clipPath id="SVGID_2_">
			<use xlink:href="#SVGID_1_"  overflow="visible"/>
		</clipPath>
		<path clip-path="url(#SVGID_2_)" fill="#233F95" d="M-174.5,193.4l0,5.3l2.1-2.1c2.1,2.2,2,5.7-0.1,7.9c-0.9,0.9-2,1.4-3.1,1.6
			l0.1,1.9c1.6-0.2,3.1-0.9,4.4-2.1c2.9-2.9,2.9-7.6,0.1-10.5l1.6-1.6L-174.5,193.4z M-180.6,204.3c-2.1-2.2-2-5.7,0.1-7.9
			c0.9-0.9,2-1.4,3.1-1.6l-0.1-1.9c-1.6,0.2-3.1,0.9-4.4,2.1c-2.9,2.9-2.9,7.6-0.1,10.5l-1.6,1.6l5,0.3l0-5.3L-180.6,204.3z"/>
	</g>
</g>
</svg>
