<?xml version="1.0" encoding="utf-8"?>
<!-- Generator: Adobe Illustrator 15.1.0, SVG Export Plug-In  -->
<!DOCTYPE svg PUBLIC "-//W3C//DTD SVG 1.1//EN" "http://www.w3.org/Graphics/SVG/1.1/DTD/svg11.dtd" [
	<!ENTITY ns_flows "http://ns.adobe.com/Flows/1.0/">
]>
<svg version="1.1"
	 xmlns="http://www.w3.org/2000/svg" xmlns:xlink="http://www.w3.org/1999/xlink" xmlns:a="http://ns.adobe.com/AdobeSVGViewerExtensions/3.0/"
	 x="0px" y="0px" width="23px" height="16px" viewBox="-8.988 -0.13 23 16"
	 overflow="visible" enable-background="new -8.988 -0.13 23 16" xml:space="preserve">
<defs>
</defs>
<g>
	<defs>
		<rect id="SVGID_1_" width="13.637" height="15.911"/>
	</defs>
	<clipPath id="SVGID_2_">
		<use xlink:href="#SVGID_1_"  overflow="visible"/>
	</clipPath>
	<path clip-path="url(#SVGID_2_)" fill="#233F95" d="M13.637,7.378c0-1.642-0.984-2.788-2.663-2.77
		c-0.444-0.346-1.013-0.533-1.581-0.533c-0.124,0-0.257,0.008-0.382,0.027C8.682,3.916,8.327,3.801,7.954,3.773v-1.5
		C7.954,1.03,6.916,0,5.673,0C4.447,0,3.409,1.047,3.409,2.273v3.32C3.045,5.461,2.663,5.398,2.273,5.398
		C0.772,5.398,0,6.544,0,7.956c0,1.19,1.517,1.571,2.344,2.086c0.417,0.266,0.781,0.568,1.145,0.888
		c0.294,0.257,1.057,0.861,1.057,1.288v2.557c0.001,0.631,0.506,1.137,1.137,1.137h5.684c0.629,0,1.135-0.506,1.135-1.137v-2.557
		c0-0.561,0.329-1.439,0.524-1.98C13.362,9.313,13.637,8.373,13.637,7.378 M12.5,7.423c0.001,1.723-1.135,3.241-1.135,4.795v0.283
		H5.682v-0.283c0-0.941-0.799-1.572-1.447-2.141c-0.408-0.363-0.816-0.7-1.288-0.994C2.761,8.968,2.565,8.861,2.37,8.755
		C2.166,8.657,1.135,8.204,1.135,7.956c0-0.755,0.284-1.421,1.138-1.421c1.136,0,1.713,0.853,2.273,0.853V2.273
		c0-0.595,0.532-1.137,1.136-1.137c0.612,0,1.138,0.524,1.138,1.137v2.938c0.212-0.186,0.629-0.31,0.914-0.31
		c0.417,0,0.771,0.168,1.057,0.47c0.185-0.106,0.399-0.16,0.612-0.16c0.408,0,0.914,0.205,1.118,0.578
		c0.16-0.028,0.329-0.045,0.497-0.045C12.093,5.745,12.501,6.42,12.5,7.423L12.5,7.423z M11.365,14.206
		c0,0.312-0.258,0.568-0.568,0.568s-0.57-0.257-0.57-0.568c0-0.311,0.26-0.568,0.57-0.568S11.365,13.896,11.365,14.206"/>
</g>
</svg>
