<?xml version="1.0" encoding="utf-8"?>
<!-- Generator: Adobe Illustrator 18.1.1, SVG Export Plug-In . SVG Version: 6.00 Build 0)  -->
<svg version="1.1" width="23" height="16" id="Layer_1" xmlns="http://www.w3.org/2000/svg" xmlns:xlink="http://www.w3.org/1999/xlink" x="0px" y="0px"
	 viewBox="-188 193 23 16" enable-background="new -188 193 23 16" xml:space="preserve">
<g>
	<g>
		<defs>
			<rect id="SVGID_1_" x="-181" y="193" width="8.9" height="16"/>
		</defs>
		<clipPath id="SVGID_2_">
			<use xlink:href="#SVGID_1_"  overflow="visible"/>
		</clipPath>
		<path clip-path="url(#SVGID_2_)" fill="#233F95" d="M-175.4,207v2h-1.8v-1.9c-1.5-0.1-2.7-0.5-3.8-1.6l1.5-1.6
			c0.8,0.8,1.8,1,2.9,1c1.4,0,2.1-0.5,2.1-1.5c0-0.4-0.1-0.8-0.4-1c-0.2-0.2-0.5-0.3-1.1-0.4l-1.5-0.2c-1-0.2-1.8-0.5-2.3-1
			c-0.6-0.6-0.9-1.4-0.9-2.4c0-1.9,1.2-3.3,3.3-3.7V193h1.8v1.7c1.2,0.1,2.2,0.6,3,1.4l-1.5,1.5c-0.8-0.7-1.7-0.8-2.5-0.8
			c-1.3,0-1.9,0.7-1.9,1.6c0,0.3,0.1,0.6,0.4,0.9c0.2,0.2,0.6,0.4,1.1,0.5l1.4,0.2c1.1,0.2,1.8,0.5,2.3,0.9c0.6,0.6,0.9,1.5,0.9,2.6
			C-172,205.4-173.4,206.7-175.4,207"/>
	</g>
</g>
</svg>
