<?xml version="1.0" encoding="utf-8"?>
<!-- Generator: Adobe Illustrator 15.1.0, SVG Export Plug-In  -->
<!DOCTYPE svg PUBLIC "-//W3C//DTD SVG 1.1//EN" "http://www.w3.org/Graphics/SVG/1.1/DTD/svg11.dtd" [
	<!ENTITY ns_flows "http://ns.adobe.com/Flows/1.0/">
]>
<svg version="1.1"
	 xmlns="http://www.w3.org/2000/svg" xmlns:xlink="http://www.w3.org/1999/xlink" xmlns:a="http://ns.adobe.com/AdobeSVGViewerExtensions/3.0/"
	 x="0px" y="0px" width="23px" height="16px" viewBox="-2.87 0 23 16" overflow="visible" enable-background="new -2.87 0 23 16"
	 xml:space="preserve">
<defs>
</defs>
<g>
	<defs>
		<rect id="SVGID_1_" width="17.26" height="15.357"/>
	</defs>
	<clipPath id="SVGID_2_">
		<use xlink:href="#SVGID_1_"  overflow="visible"/>
	</clipPath>
	<path clip-path="url(#SVGID_2_)" fill="#D0D2D3" d="M11.715,11.316c0.527,0,0.977-0.449,0.977-0.996
		c0-0.545-0.448-0.993-0.977-0.993c-0.545,0-0.993,0.448-0.993,0.993C10.722,10.867,11.17,11.316,11.715,11.316 M7.596,11.316
		c0.547,0,0.996-0.449,0.996-0.996c0-0.545-0.449-0.993-0.996-0.993c-0.547,0-0.977,0.448-0.977,0.993
		C6.619,10.867,7.049,11.316,7.596,11.316 M8.909,4.639H2.923V1.364h5.986V4.639z M15.954,14.033H1.325V7.196h14.629V14.033z
		 M0.877,5.831C0,5.831,0,6.201,0,7.45v6.875c0,1.032,0.331,1.032,1.403,1.032h14.96c0.818,0,0.896-0.312,0.896-0.896V6.825
		c0-0.937-0.252-0.994-1.09-0.994H9.299c0.8-0.508,0.937-0.742,0.937-2.051V2.693l6.056-1.388c0.41-0.097,0.605-0.233,0.605-0.604
		C16.896,0.195,16.604,0,16.23,0l-5.997,1.287V0.994c0-0.955-0.447-0.975-1.521-0.975H2.299c-0.566,0-0.702,0.352-0.702,1.131v2.767
		c0,1.055,0.351,1.504,1.248,1.914H0.877z"/>
</g>
</svg>
