<?xml version="1.0" encoding="utf-8"?>
<!-- Generator: Adobe Illustrator 15.1.0, SVG Export Plug-In  -->
<!DOCTYPE svg PUBLIC "-//W3C//DTD SVG 1.1//EN" "http://www.w3.org/Graphics/SVG/1.1/DTD/svg11.dtd" [
	<!ENTITY ns_flows "http://ns.adobe.com/Flows/1.0/">
]>
<svg version="1.1"
	 xmlns="http://www.w3.org/2000/svg" xmlns:xlink="http://www.w3.org/1999/xlink" xmlns:a="http://ns.adobe.com/AdobeSVGViewerExtensions/3.0/"
	 x="0px" y="0px" width="23px" height="16px" viewBox="0 0 23 16" overflow="visible" enable-background="new 0 0 23 16"
	 xml:space="preserve">
<defs>
</defs>
<g>
	<defs>
		<rect id="SVGID_1_" width="22.6" height="16"/>
	</defs>
	<clipPath id="SVGID_2_">
		<use xlink:href="#SVGID_1_"  overflow="visible"/>
	</clipPath>
	<path clip-path="url(#SVGID_2_)" fill="#233F95" d="M16.8,5.4v-2h0.8c0.3,0,0.3-0.1,0.1-0.3l-3.7-3c-0.2-0.1-0.5-0.1-0.7,0l-3.7,3
		C9.4,3.3,9.5,3.4,9.7,3.4h0.8v1.9L5,9.8c-0.4,0.4-0.3,0.6,0.3,0.6H7v4.9C7,15.7,7,16,7.8,16h3.9v-3.4h4.1V16h4
		c0.6,0,0.6-0.3,0.6-0.6v-4.9h1.7c0.6,0,0.8-0.3,0.3-0.6L16.8,5.4z"/>
</g>
<polygon fill="#233F95" points="0,1.7 4.1,3.2 4.1,0.5 "/>
<rect x="4.4" y="0.5" fill="#233F95" width="1.9" height="15.5"/>
</svg>
