<svg display="none" width="0" height="0" version="1.1" xmlns="http://www.w3.org/2000/svg" xmlns:xlink="http://www.w3.org/1999/xlink">
<defs>
<symbol id="icon-icon_foodservices" viewBox="0 0 853 1024">
	<title>icon_foodservices</title>
	<path class="path1" d="M420.978 950.044c-39.822 0-79.644 22.756-147.911 17.067s-193.422-130.844-256-347.022c-68.267-216.178 73.956-369.778 199.111-386.844 108.089-17.067 164.978 28.444 182.044 45.511s28.444 17.067 45.511 0c22.756-17.067 62.578-56.889 182.044-45.511 125.156 11.378 267.378 164.978 199.111 386.844-68.267 216.178-193.422 341.333-256 347.022-68.267 5.689-108.089-17.067-147.911-17.067z"></path>
	<path class="path2" d="M45.511 28.444c0 0 108.089-34.133 204.8 11.378 62.578 28.444 136.533 182.044 136.533 182.044s-68.267-45.511-170.667-28.444c-102.4 17.067-159.289-119.467-170.667-164.978z"></path>
	<path class="path3" d="M426.667 233.244v-170.667l102.4 28.444z"></path>
</symbol>
<symbol id="icon-icon_utilities" viewBox="0 0 683 1024">
	<title>icon_utilities</title>
	<path class="path1" d="M91.022 312.889c11.378-119.467 96.711-187.733 227.556-187.733s210.489 62.578 216.178 187.733c5.689 68.267-34.133 113.778-79.644 182.044-34.133 51.2-73.956 108.089-91.022 193.422h-96.711c-22.756-85.333-56.889-136.533-91.022-193.422-51.2-73.956-91.022-119.467-85.333-182.044zM438.044 779.378c0-204.8 210.489-273.067 193.422-477.867-11.378-130.844-96.711-273.067-318.578-273.067s-301.511 142.222-312.889 273.067c-17.067 204.8 193.422 273.067 193.422 477.867h244.622zM187.733 927.289c34.133 22.756 73.956 39.822 125.156 39.822s91.022-17.067 125.156-39.822v-102.4h-250.311v102.4z"></path>
</symbol>
<symbol id="icon-icon_security" viewBox="0 0 964 1024">
	<title>icon_security</title>
	<path class="path1" d="M638.494 710.776l-138.541-72.282-138.541 72.282 24.094-150.588-102.4-108.424 150.588-24.094 66.259-138.541 66.259 138.541 156.612 24.094-108.424 108.424 24.094 150.588zM921.6 156.612c-252.988 36.141-307.2-30.118-421.647-126.494-114.447 102.4-162.635 168.659-421.647 126.494-138.541 674.635 421.647 867.388 421.647 867.388s560.188-186.729 421.647-867.388z"></path>
</symbol>
<symbol id="icon-icon_informationtechnology" viewBox="0 0 1339 1024">
	<title>icon_informationtechnology</title>
	<path class="path1" d="M1039.754 661.662h-724.677v-480.492h716.8v480.492zM496.246 897.969l39.385-63.015h283.569l39.385 63.015h-362.338zM1260.308 882.215c-15.754-23.631-102.4-157.538-102.4-157.538v-543.508c0-63.015-55.138-118.154-118.154-118.154h-724.677c-63.015 0-118.154 55.138-118.154 118.154v535.631c0 0-86.646 133.908-102.4 157.538s-15.754 39.385-15.754 55.138v31.508c0 31.508 31.508 63.015 63.015 63.015h1079.138c31.508 0 63.015-31.508 63.015-63.015v-31.508c-7.877-15.754-7.877-31.508-23.631-47.262z"></path>
</symbol>
<symbol id="icon-icon_maintenance" viewBox="0 0 1170 1024">
	<title>icon_maintenance</title>
	<path class="path1" d="M219.429 914.286c-14.629 14.629-14.629 29.257 0 43.886l51.2 51.2c14.629 14.629 29.257 14.629 43.886 0l270.629-277.943-80.457-102.4-285.257 285.257zM1162.971 131.657c-7.314-29.257-14.629-21.943-21.943-7.314s-36.571 65.829-51.2 87.771c-14.629 21.943-43.886 65.829-109.714 21.943s-43.886-80.457-29.257-102.4c7.314-21.943 43.886-80.457 51.2-95.086 7.314-7.314 0-29.257-21.943-21.943s-138.971 58.514-153.6 131.657c-21.943 73.143 14.629 138.971-51.2 197.486l-73.143 80.457 73.143 87.771 87.771-87.771c21.943-21.943 65.829-43.886 109.714-36.571 87.771 21.943 138.971-14.629 168.229-73.143 29.257-43.886 29.257-153.6 21.943-182.857zM555.886 358.4c-7.314-7.314-14.629-7.314-21.943 0l-80.457 73.143c0 7.314-7.314 14.629 0 21.943l453.486 541.257c7.314 14.629 29.257 14.629 43.886 0l51.2-43.886c14.629-14.629 14.629-29.257 0-43.886l-446.171-548.571zM241.371 329.143c51.2-36.571 95.086-7.314 153.6 58.514 7.314 7.314 14.629 0 21.943-7.314s80.457-73.143 80.457-80.457c0 0 7.314-7.314 0-14.629s-21.943-36.571-36.571-51.2c-102.4-138.971 270.629-234.057 212.114-234.057-29.257 0-146.286 0-160.914 0-73.143 7.314-160.914 80.457-204.8 109.714-58.514 43.886-80.457 65.829-80.457 73.143-21.943 14.629-7.314 43.886-36.571 73.143s-51.2 7.314-73.143 21.943c-7.314 14.629-29.257 29.257-36.571 36.571s-7.314 21.943 0 29.257c0 0 73.143 80.457 73.143 87.771 7.314 7.314 21.943 14.629 29.257 7.314 14.629-14.629 36.571-36.571 43.886-36.571 0-7.314-7.314-51.2 14.629-73.143z"></path>
</symbol>
<symbol id="icon-icon_coshare" viewBox="0 0 1317 1024">
	<title>icon_coshare</title>
	<path class="path1" d="M1060.571 519.314c-65.829 0-80.457 51.2-80.457 73.143-36.571 160.914-175.543 277.943-343.771 277.943-95.086 0-182.857-36.571-248.686-102.4-29.257-29.257-80.457-29.257-109.714 0s-29.257 80.457 0 109.714c87.771 87.771 219.429 146.286 358.4 146.286 226.743 0 416.914-146.286 482.743-351.086h146.286v-153.6h-204.8zM285.257 446.171c36.571-160.914 175.543-277.943 343.771-277.943 95.086 0 182.857 36.571 248.686 102.4 29.257 29.257 80.457 29.257 109.714 0s29.257-80.457 0-109.714c-87.771-87.771-219.429-146.286-358.4-146.286-226.743 0-416.914 146.286-482.743 351.086h-146.286v153.6h204.8c58.514 0 73.143-51.2 80.457-73.143zM431.543 519.314c0 109.714 87.771 204.8 204.8 204.8s204.8-87.771 204.8-204.8c0-109.714-87.771-204.8-204.8-204.8s-204.8 95.086-204.8 204.8z"></path>
</symbol>
<symbol id="icon-icon_playgrounds" viewBox="0 0 1084 1024">
	<title>icon_playgrounds</title>
	<path class="path1" d="M644.518 18.071c-48.188 0-84.329 36.141-84.329 84.329s36.141 84.329 84.329 84.329c48.188 0 84.329-36.141 84.329-84.329s-42.165-84.329-84.329-84.329zM722.824 210.824c0 0 0 0 0 0-12.047 6.024-18.071 18.071-24.094 30.118l-108.424 319.247-180.706 54.212-138.541-210.824c-6.024-18.071-18.071-24.094-24.094-24.094-12.047 0-18.071 12.047-24.094 24.094l-108.424 301.176-114.447 42.165 30.118 102.4 259.012-84.329-108.424 132.518c-18.071 18.071-12.047 48.188 0 60.235 6.024 6.024 18.071 12.047 30.118 12.047s24.094-6.024 30.118-12.047c0 0 210.824-240.941 204.8-240.941 0 0 0 0 0 0v0l84.329-24.094-138.541 337.318h337.318l-138.541-355.388 84.329-24.094 210.824 150.588c6.024 6.024 18.071 6.024 24.094 6.024 18.071 0 36.141-12.047 42.165-30.118 6.024-30.118-6.024-42.165-24.094-54.212l-150.588-102.4 289.129-90.353-30.118-102.4-114.447 36.141c-42.165-66.259-132.518-186.729-156.612-216.847s-30.118-36.141-42.165-36.141zM307.2 186.729c-48.188 0-84.329 36.141-84.329 84.329s36.141 84.329 84.329 84.329 84.329-36.141 84.329-84.329-36.141-84.329-84.329-84.329z"></path>
	<path class="path2" d="M716.8 210.824c-12.047 6.024-18.071 18.071-18.071 30.118l-108.424 319.247-180.706 54.212-138.541-210.824c-18.071-30.118-42.165-24.094-48.188 0l-108.424 301.176-114.447 42.165 30.118 102.4 259.012-84.329-108.424 132.518c-18.071 18.071-12.047 48.188 0 60.235 12.047 18.071 42.165 24.094 60.235 0 0 0 228.894-259.012 204.8-234.918v0l84.329-24.094-138.541 337.318h331.294l-138.541-355.388 84.329-24.094 210.824 150.588c18.071 12.047 54.212 6.024 66.259-24.094 6.024-30.118-6.024-42.165-24.094-54.212l-150.588-102.4 289.129-90.353-30.118-102.4-114.447 36.141c-42.165-66.259-132.518-186.729-156.612-216.847-18.071-36.141-30.118-42.165-42.165-42.165zM307.2 186.729c-48.188 0-84.329 36.141-84.329 84.329s36.141 84.329 84.329 84.329c48.188 0 84.329-36.141 84.329-84.329s-36.141-84.329-84.329-84.329zM644.518 18.071c-48.188 0-84.329 36.141-84.329 84.329s36.141 84.329 84.329 84.329c48.188 0 84.329-36.141 84.329-84.329-6.024-48.188-42.165-84.329-84.329-84.329z"></path>
</symbol>
<symbol id="icon-icon_ADA" viewBox="0 0 916 1024">
	<title>icon_ADA</title>
	<path class="path1" d="M549.726 727.579c-16.168 118.568-113.179 215.579-231.747 215.579-129.347 0-237.137-107.789-237.137-242.526 0-75.453 32.337-145.516 86.232-188.632v-102.4c-97.011 53.895-167.074 161.684-167.074 285.642 0 183.242 140.126 328.758 317.979 328.758 134.737 0 247.916-86.232 291.032-204.8l-59.284-91.621z"></path>
	<path class="path2" d="M846.147 786.863l-64.674 48.505-167.074-291.032h-323.368v-70.063h172.463v-75.453h-172.463v-172.463c37.726-16.168 70.063-53.895 70.063-102.4 0-59.284-48.505-107.789-107.789-107.789s-107.789 48.505-107.789 107.789c0 48.505 32.337 91.621 70.063 102.4v388.042h355.705l183.242 317.979 129.347-86.232-37.726-59.284z"></path>
</symbol>
<symbol id="icon-icon_airconditioning" viewBox="0 0 1260 1024">
	<title>icon_airconditioning</title>
	<path class="path1" d="M1118.523 771.938c-118.154 102.4-212.677 181.169-464.738 39.385-338.708-189.046-496.246-55.138-622.277 55.138-39.385 15.754-39.385 63.015-15.754 94.523s70.892 31.508 94.523 7.877c118.154-102.4 212.677-181.169 464.738-39.385 126.031 70.892 220.554 94.523 307.2 94.523 141.785 0 236.308-78.769 315.077-149.662 31.508-23.631 31.508-70.892 7.877-94.523-15.754-31.508-63.015-39.385-86.646-7.877zM1118.523 417.477c-118.154 102.4-212.677 181.169-464.738 39.385-346.585-189.046-504.123-55.138-630.154 55.138-31.508 23.631-31.508 70.892-7.877 94.523 23.631 31.508 70.892 39.385 94.523 15.754 118.154-102.4 212.677-181.169 464.738-39.385 126.031 70.892 220.554 94.523 307.2 94.523 141.785 0 236.308-78.769 315.077-149.662 31.508-23.631 31.508-70.892 7.877-94.523-15.754-31.508-63.015-39.385-86.646-15.754zM110.277 275.692c118.154-102.4 212.677-189.046 472.615-39.385 118.154 63.015 220.554 94.523 299.323 94.523 141.785 0 236.308-78.769 315.077-149.662 31.508-23.631 31.508-70.892 7.877-94.523-23.631-31.508-70.892-31.508-94.523-7.877-118.154 94.523-212.677 173.292-464.738 31.508-338.708-189.046-496.246-55.138-622.277 55.138-31.508 23.631-31.508 70.892-7.877 94.523 23.631 31.508 70.892 39.385 94.523 15.754z"></path>
</symbol>
<symbol id="icon-icon_warmingkitchen" viewBox="0 0 723 1024">
	<title>icon_warmingkitchen</title>
	<path class="path1" d="M192.753 524.047c36.141 0 42.165-24.094 42.165-84.329v-102.4c0-48.188-6.024-84.329-42.165-84.329s-36.141 30.118-36.141 84.329v108.424c-6.024 48.188-6.024 78.306 36.141 78.306zM608.376 867.388h-530.071v-764.988h530.071v764.988zM78.306 969.788c0 24.094 12.047 54.212 42.165 54.212 24.094 0 36.141-18.071 36.141-54.212v-18.071h373.459v30.118c0 24.094 18.071 42.165 42.165 42.165 36.141 0 36.141-24.094 36.141-54.212v-24.094h30.118c48.188 0 48.188-24.094 48.188-84.329v-758.965c0-66.259-6.024-78.306-72.282-78.306h-524.047c-84.329 0-90.353 6.024-90.353 78.306v783.059c0 42.165 12.047 66.259 48.188 66.259h24.094v18.071z"></path>
</symbol>
<symbol id="icon-icon_cookingkitchen" viewBox="0 0 1152 1024">
	<title>icon_cookingkitchen</title>
	<path class="path1" d="M748.8 761.6c32 0 64-25.6 64-64s-25.6-64-64-64c-32 0-64 25.6-64 64s32 64 64 64zM486.4 761.6c32 0 64-25.6 64-64s-25.6-64-64-64-64 25.6-64 64 25.6 64 64 64zM569.6 332.8h-384v-204.8h384v204.8zM1024 934.4h-940.8v-435.2h940.8v435.2zM57.6 409.6c-57.6 0-57.6 25.6-57.6 108.8v441.6c0 64 19.2 64 89.6 64h960c51.2 0 57.6-19.2 57.6-57.6v-492.8c0-57.6-19.2-64-70.4-64h-441.6c51.2-32 57.6-44.8 57.6-134.4v-64l390.4-89.6c25.6-6.4 38.4-12.8 38.4-38.4 0-32-19.2-44.8-44.8-44.8l-384 83.2v-19.2c0-64-25.6-64-96-64h-409.6c-38.4 0-44.8 25.6-44.8 76.8v179.2c0 70.4 25.6 96 76.8 121.6h-121.6z"></path>
</symbol>
<symbol id="icon-icon_stadium" viewBox="0 0 1024 1024">
	<title>icon_stadium</title>
	<path class="path1" d="M198.4 505.6l32-44.8-19.2-19.2 25.6-32 32 12.8 25.6-32-19.2-25.6 32-32 25.6 19.2 32-32-25.6-25.6 32-32 25.6 19.2 32-25.6-19.2-19.2 38.4-25.6 19.2 19.2 32-19.2-12.8-19.2 38.4-19.2 70.4 76.8-32 12.8-25.6-19.2-32 19.2 19.2 25.6-32 19.2-32-19.2-32 32 25.6 32-38.4 19.2-25.6-25.6-32 38.4 25.6 25.6-25.6 25.6-32-25.6-38.4 38.4 25.6 25.6-25.6 32-32-12.8-25.6 38.4 25.6 25.6-25.6 32-70.4-64 19.2-32 19.2 12.8zM979.2 358.4c12.8-64 12.8-108.8 12.8-160 0-121.6-44.8-153.6-185.6-153.6-25.6 0-76.8 6.4-134.4 12.8l307.2 300.8zM441.6 985.6c281.6-115.2 416-262.4 512-518.4l-390.4-384c-268.8 102.4-384 211.2-518.4 505.6l396.8 396.8zM0 851.2c0 134.4 44.8 172.8 192 172.8 57.6 0 102.4-6.4 147.2-19.2l-320-320c-12.8 57.6-19.2 108.8-19.2 166.4z"></path>
</symbol>
<symbol id="icon-icon_swimmingpool" viewBox="0 0 1243 1024">
	<title>icon_swimmingpool</title>
	<path class="path1" d="M138.971 811.886c-51.2 0-95.086 29.257-138.971 43.886v138.971c0 0 73.143-43.886 138.971-43.886 73.143 0 138.971 73.143 241.371 73.143s138.971-65.829 212.114-73.143c73.143 0 102.4 73.143 212.114 73.143 102.4 0 175.543-73.143 241.371-73.143 51.2 0 138.971 43.886 138.971 43.886v-138.971c-43.886-14.629-95.086-43.886-138.971-43.886-102.4 0-175.543 73.143-241.371 73.143-73.143 0-102.4-73.143-212.114-73.143-102.4 0-138.971 73.143-212.114 73.143s-138.971-73.143-241.371-73.143zM906.971 256c-80.457 0-138.971 65.829-138.971 138.971 0 80.457 65.829 138.971 138.971 138.971 80.457 0 138.971-65.829 138.971-138.971 0-80.457-58.514-138.971-138.971-138.971zM775.314 43.886c-14.629 0-29.257 7.314-36.571 7.314l-277.943 138.971c-36.571 14.629-51.2 73.143-29.257 102.4l87.771 117.029-329.143 256c80.457 14.629 138.971 65.829 197.486 65.829 73.143 0 102.4-73.143 212.114-73.143 102.4 0 138.971 73.143 212.114 73.143 29.257 0 58.514-14.629 87.771-29.257l-292.571-431.543 212.114-109.714c43.886-21.943 36.571-58.514 36.571-80.457-14.629-7.314-36.571-36.571-80.457-36.571z"></path>
</symbol>
<symbol id="icon-icon_facilityaddress" viewBox="0 0 1317 1024">
	<title>icon_facilityaddress</title>
	<path class="path1" d="M1301.943 58.514c0-21.943-21.943-43.886-43.886-43.886h-804.571c-29.257 0-51.2 21.943-51.2 43.886v212.114h-109.714c-21.943 0-58.514 14.629-73.143 29.257l-146.286 124.343c-14.629 14.629-29.257 51.2-29.257 73.143v270.629c-21.943 0-43.886 21.943-43.886 43.886s21.943 43.886 43.886 43.886h87.771c0 95.086 80.457 168.229 182.857 168.229s182.857-73.143 182.857-168.229h270.629c0 95.086 80.457 168.229 182.857 168.229s182.857-73.143 182.857-168.229h131.657c21.943 0 43.886-21.943 43.886-43.886v-753.371zM1119.086 416.914c0 14.629-7.314 21.943-21.943 21.943h-153.6v146.286c0 14.629-7.314 21.943-21.943 21.943h-131.657c-14.629 0-21.943-7.314-21.943-21.943v-146.286h-160.914c-14.629 0-21.943-14.629-21.943-21.943v-131.657c0-14.629 7.314-21.943 21.943-21.943h153.6v-146.286c0-14.629 7.314-21.943 21.943-21.943h131.657c14.629 0 21.943 7.314 21.943 21.943v146.286h160.914c14.629 0 21.943 7.314 21.943 21.943v131.657zM1031.314 855.771c0 43.886-36.571 87.771-87.771 87.771s-87.771-36.571-87.771-87.771c0-43.886 36.571-87.771 87.771-87.771s87.771 43.886 87.771 87.771zM131.657 519.314v-21.943c0-7.314 7.314-14.629 7.314-14.629l138.971-131.657c0 0 14.629-7.314 14.629-7.314h109.714v168.229h-270.629zM402.286 855.771c0 43.886-36.571 87.771-87.771 87.771s-87.771-36.571-87.771-87.771c0-43.886 36.571-87.771 87.771-87.771 51.2 7.314 87.771 43.886 87.771 87.771z"></path>
</symbol>
<symbol id="icon-icon_programs" viewBox="0 0 1152 1024">
	<title>icon_programs</title>
	<path class="path1" d="M1132.8 761.6c0-32-25.6-64-57.6-64h-57.6v-121.6c0-44.8-38.4-83.2-83.2-83.2h-326.4v-115.2h57.6c32 0 57.6-25.6 57.6-57.6v-204.8c6.4-38.4-19.2-64-57.6-64h-198.4c-32 0-64 25.6-64 57.6v204.8c0 32 25.6 57.6 64 57.6h64v128h-326.4c-44.8 0-83.2 32-83.2 76.8v121.6h-64c-32 0-57.6 25.6-57.6 64v204.8c0 32 25.6 57.6 57.6 57.6h204.8c32 0 64-25.6 64-57.6v-204.8c0-32-25.6-64-64-64h-57.6v-121.6h326.4v121.6h-64c-32 0-64 25.6-64 64v204.8c0 32 25.6 57.6 64 57.6h204.8c32 0 57.6-25.6 57.6-57.6v-204.8c0-32-25.6-64-57.6-64h-64v-121.6h326.4v121.6h-57.6c-32 0-57.6 25.6-57.6 64v204.8c0 32 25.6 57.6 57.6 57.6h204.8c32 0 57.6-25.6 57.6-57.6v-204.8z"></path>
</symbol>
<symbol id="icon-icon_replicating" viewBox="0 0 1103 1024">
	<title>icon_replicating</title>
	<path class="path1" d="M693.169 78.769v346.585l141.785-141.785c133.908 141.785 133.908 370.215-7.877 512-55.138 55.138-126.031 94.523-204.8 102.4l7.877 126.031c102.4-15.754 204.8-63.015 283.569-141.785 189.046-189.046 189.046-496.246 7.877-685.292l102.4-102.4-330.831-15.754zM299.323 787.692c-133.908-149.662-133.908-370.215 7.877-512 55.138-55.138 126.031-94.523 204.8-102.4l-7.877-126.031c-102.4 15.754-204.8 63.015-283.569 141.785-189.046 189.046-189.046 488.369-7.877 685.292l-102.4 102.4 330.831 15.754v-346.585l-141.785 141.785z"></path>
</symbol>
<symbol id="icon-icon_coreinstructfunding" viewBox="0 0 576 1024">
	<title>icon_coreinstructfunding</title>
	<path class="path1" d="M345.6 902.4v128h-108.8v-121.6c-96-6.4-172.8-32-236.8-102.4l96-96c44.8 51.2 115.2 64 185.6 64 89.6 0 134.4-32 134.4-96 0-25.6-6.4-51.2-25.6-64s-32-19.2-70.4-25.6l-89.6-12.8c-64-12.8-115.2-32-147.2-64-38.4-38.4-51.2-83.2-51.2-147.2 0-121.6 76.8-211.2 204.8-230.4v-108.8h108.8v108.8c76.8 6.4 134.4 32 192 83.2l-96 96c-44.8-44.8-102.4-51.2-153.6-51.2-76.8 0-115.2 44.8-115.2 96 0 19.2 6.4 38.4 19.2 51.2s38.4 25.6 70.4 32l89.6 12.8c70.4 12.8 115.2 32 147.2 57.6 38.4 38.4 57.6 96 57.6 160 0 128-89.6 204.8-211.2 230.4z"></path>
</symbol>
<symbol id="icon-icon_gradesserved" viewBox="0 0 819 1024">
	<title>icon_gradesserved</title>
	<path class="path1" d="M184.32 824.32l40.96-133.12h353.28l35.84 133.12h-430.080zM768 394.24h-742.4c-15.36 0-25.6 10.24-25.6 25.6v35.84c0 15.36 10.24 25.6 20.48 25.6 0 35.84 5.12 92.16 40.96 133.12 20.48 25.6 46.080 35.84 76.8 46.080v0c0 10.24 5.12 20.48 15.36 25.6l-81.92 307.2c-5.12 15.36 5.12 25.6 20.48 25.6h10.24c15.36 0 30.72-10.24 35.84-25.6l30.72-102.4c0 0 0 0 0 0h460.8l30.72 102.4c5.12 15.36 20.48 25.6 35.84 25.6h10.24c15.36 0 25.6-10.24 20.48-25.6l-81.92-307.2c10.24-5.12 15.36-15.36 15.36-25.6v-30.72c0-15.36-10.24-25.6-25.6-25.6h-460.8c-10.24 0-15.36 5.12-20.48 10.24-20.48-5.12-35.84-15.36-46.080-25.6-25.6-30.72-30.72-71.68-30.72-102.4h92.16v40.96c0 15.36 10.24 25.6 25.6 25.6h409.6c15.36 0 25.6-10.24 25.6-25.6v-46.080h138.24c15.36 0 25.6-10.24 25.6-25.6v-35.84c5.12-15.36-10.24-25.6-25.6-25.6z"></path>
	<path class="path2" d="M604.16 51.2c0-15.36-10.24-25.6-25.6-25.6h-358.4c-15.36 0-25.6 10.24-25.6 25.6l-15.36 296.96h440.32l-15.36-296.96z"></path>
</symbol>
<symbol id="icon-icon_gradecategory" viewBox="0 0 1497 1024">
	<title>icon_gradecategory</title>
	<path class="path1" d="M1441.477 299.323c0-7.877-7.877-15.754-15.754-15.754l-701.046-220.554c0 0-7.877 0-7.877 0s0 0-7.877 0l-693.169 220.554c-7.877 0-15.754 7.877-15.754 15.754s7.877 15.754 15.754 15.754l204.8 63.015c-39.385 63.015-55.138 141.785-63.015 212.677-23.631 15.754-39.385 39.385-39.385 70.892s15.754 55.138 39.385 70.892l-39.385 267.815c0 7.877 0 7.877 7.877 15.754 0 7.877 7.877 7.877 15.754 7.877h118.154c7.877 0 7.877 0 15.754-7.877 0-7.877 7.877-7.877 7.877-15.754l-39.385-267.815c23.631-15.754 39.385-39.385 39.385-70.892s-15.754-55.138-39.385-70.892c7.877-86.646 31.508-149.662 63.015-181.169l409.6 126.031c0 0 7.877 0 7.877 0s0 0 7.877 0l701.046-220.554c0 7.877 7.877 0 7.877-15.754zM1110.646 504.123l-362.338 118.154c-7.877 0-23.631 7.877-31.508 7.877s-23.631 0-31.508-7.877l-354.462-118.154-7.877 196.923c-7.877 86.646 181.169 157.538 401.723 157.538s401.723-70.892 401.723-157.538l-15.754-196.923z"></path>
</symbol>
<symbol id="icon-icon_network" viewBox="0 0 1161 1024">
	<title>icon_network</title>
	<path class="path1" d="M1037.653 191.147c0-75.093-61.44-136.533-136.533-136.533s-136.533 61.44-136.533 136.533 61.44 136.533 136.533 136.533 136.533-54.613 136.533-136.533zM1105.92 525.653c0-40.96 0-191.147-68.267-191.147-13.653 0-68.267 47.787-143.36 47.787-27.307 0-47.787-6.827-75.093-13.653 0 13.653 0 27.307 0 34.133 0 47.787-13.653 95.573-40.96 136.533 54.613 0 109.227 27.307 143.36 68.267h75.093c61.44 0 109.227-20.48 109.227-81.92zM798.72 402.773c0-116.053-95.573-204.8-211.627-204.8s-204.8 95.573-204.8 204.8 95.573 211.627 204.8 211.627 211.627-95.573 211.627-211.627zM416.427 191.147c0-75.093-61.44-136.533-136.533-136.533s-143.36 61.44-143.36 136.533 61.44 136.533 136.533 136.533 143.36-54.613 143.36-136.533zM969.387 887.467c0-122.88-27.307-314.027-184.32-314.027-20.48 0-88.747 75.093-191.147 75.093-116.053 0-177.493-75.093-197.973-75.093-157.013 0-191.147 191.147-191.147 314.027 0 88.747 61.44 143.36 143.36 143.36h471.040c95.573-6.827 150.187-54.613 150.187-143.36zM389.12 539.307c-27.307-40.96-40.96-88.747-40.96-136.533 0-13.653 0-20.48 0-34.133-20.48 6.827-47.787 6.827-68.267 6.827-75.093 0-129.707-40.96-143.36-40.96-68.267 0-68.267 150.187-68.267 191.147 0 61.44 47.787 88.747 102.4 88.747h75.093c34.133-47.787 88.747-75.093 143.36-75.093z"></path>
</symbol>
<symbol id="icon-icon_governance" viewBox="0 0 1152 1024">
	<title>icon_governance</title>
	<path class="path1" d="M1100.8 915.2h-998.4c-19.2 0-38.4 12.8-38.4 32v70.4h1075.2v-70.4c0-19.2-19.2-32-38.4-32zM204.8 377.6v428.8h-32c-19.2 0-38.4 19.2-38.4 38.4v38.4h928v-38.4c0-19.2-19.2-38.4-38.4-38.4h-32v-428.8h-140.8v428.8h-70.4v-428.8h-147.2v428.8h-70.4v-428.8h-140.8v428.8h-70.4v-428.8h-147.2zM601.6 19.2l-537.6 217.6v70.4h70.4c0 19.2 19.2 32 38.4 32h851.2c19.2 0 38.4-19.2 38.4-38.4h70.4v-64l-531.2-217.6z"></path>
</symbol>
<symbol id="icon-icon_identification" viewBox="0 0 1418 1024">
	<title>icon_identification</title>
	<path class="path1" d="M1094.892 669.538c0 0-110.277-31.508-110.277-86.646s70.892-70.892 70.892-181.169c0-86.646-31.508-141.785-118.154-141.785-78.769 0-110.277 55.138-110.277 141.785 0 110.277 70.892 133.908 70.892 181.169 0 63.015-110.277 86.646-110.277 86.646-7.877 0-7.877 86.646-7.877 86.646h322.954c0 7.877 0-86.646-7.877-86.646zM653.785 259.938h-315.077v118.154h322.954v-118.154zM653.785 456.862h-315.077v118.154h322.954v-118.154zM653.785 645.908h-315.077v118.154h322.954v-118.154zM1228.8 897.969h-1024v-771.938h1024v771.938zM1228.8 0h-1024c-70.892 0-126.031 55.138-126.031 126.031v771.938c0 70.892 55.138 126.031 126.031 126.031h1024c70.892 0 126.031-55.138 126.031-126.031v-771.938c7.877-70.892-55.138-126.031-126.031-126.031z"></path>
</symbol>
<symbol id="icon-icon_busdrop" viewBox="0 0 910 1024">
	<title>icon_busdrop</title>
	<path class="path1" d="M870.4 506.311c0-45.511 0-73.956-11.378-119.467l-56.889-244.622c-11.378-79.644-170.667-130.844-364.089-130.844s-352.711 51.2-364.089 136.533l-56.889 244.622c-11.378 39.822-17.067 73.956-17.067 113.778v324.267h73.956v68.267c0 39.822 34.133 68.267 73.956 68.267s73.956-28.444 73.956-68.267v-68.267h438.044v68.267c0 39.822 34.133 68.267 73.956 68.267s73.956-28.444 73.956-68.267v-68.267h73.956v-324.267zM642.844 125.156c0 17.067-11.378 28.444-28.444 28.444h-358.4c-17.067-5.689-28.444-17.067-28.444-28.444s11.378-28.444 28.444-28.444h364.089c11.378 0 22.756 11.378 22.756 28.444v0zM773.689 449.422c5.689 22.756-11.378 39.822-34.133 39.822h-603.022c-22.756 0-39.822-17.067-39.822-39.822l39.822-204.8c5.689-17.067 17.067-28.444 34.133-28.444h523.378c17.067 0 34.133 11.378 34.133 28.444l45.511 204.8zM796.444 659.911c0 39.822-34.133 68.267-73.956 68.267s-73.956-28.444-73.956-68.267 34.133-68.267 73.956-68.267c45.511 0 73.956 28.444 73.956 68.267zM216.178 659.911c0 39.822-34.133 68.267-73.956 68.267s-73.956-28.444-73.956-68.267 34.133-68.267 73.956-68.267c45.511 0 73.956 28.444 73.956 68.267z"></path>
</symbol>
<symbol id="icon-icon_mailrun" viewBox="0 0 1240 1024">
	<title>icon_mailrun</title>
	<path class="path1" d="M1212.632 258.695l-140.126-91.621c-10.779-5.389-16.168-10.779-32.337-10.779-10.779-5.389-21.558-5.389-32.337-5.389h-398.821l48.505 253.305h355.705c10.779 0 21.558 0 32.337-5.389 10.779 0 21.558-10.779 32.337-10.779l140.126-91.621c5.389-5.389 10.779-10.779 10.779-16.168s-10.779-16.168-16.168-21.558v0zM555.116 32.337h-53.895c-16.168 0-26.947 10.779-26.947 21.558v210.189h-204.8c-10.779 0-21.558 0-32.337 5.389-10.779 0-21.558 5.389-32.337 10.779l-140.126 91.621c-5.389 5.389-10.779 10.779-10.779 16.168s5.389 10.779 10.779 16.168l140.126 91.621c10.779 5.389 21.558 10.779 32.337 16.168 10.779 0 21.558 5.389 32.337 5.389h204.8v485.053c0 10.779 10.779 21.558 21.558 21.558h53.895c10.779 0 21.558-10.779 21.558-21.558v-948.547c5.389-10.779-5.389-21.558-16.168-21.558z"></path>
</symbol>
<symbol id="icon-icon_deliveryaddress" viewBox="0 0 1229 1024">
	<title>icon_deliveryaddress</title>
	<path class="path1" d="M1221.973 375.467c0-13.653-13.653-27.307-27.307-27.307h-348.16c95.573 0 177.493-75.093 177.493-170.667s-75.093-163.84-177.493-163.84c-54.613 0-102.4 20.48-136.533 54.613l-95.573 129.707-102.4-129.707c-34.133-34.133-81.92-54.613-136.533-54.613-95.573 0-177.493 75.093-177.493 170.667s81.92 170.667 177.493 170.667h-348.16c-13.653-6.827-27.307 6.827-27.307 20.48v238.933c0 13.653 13.653 20.48 27.307 20.48h75.093v314.027c0 40.96 34.133 75.093 75.093 75.093h866.987c40.96 0 75.093-34.133 75.093-75.093v-314.027h75.093c13.653 0 27.307-13.653 27.307-27.307v-232.107zM928.427 184.32c0 40.96-34.133 75.093-75.093 75.093h-157.013l102.4-122.88c6.827-6.827 27.307-20.48 54.613-20.48 40.96-6.827 75.093 27.307 75.093 68.267zM375.467 252.587c-40.96 0-75.093-34.133-75.093-68.267s34.133-75.093 75.093-75.093c27.307 0 47.787 13.653 54.613 20.48l102.4 122.88h-157.013zM737.28 887.467c0 27.307-20.48 40.96-47.787 40.96h-150.187c-27.307 0-47.787-13.653-47.787-40.96v-539.307h252.587v539.307z"></path>
</symbol>
<symbol id="icon-icon_schooladdress" viewBox="0 0 723 1024">
	<title>icon_schooladdress</title>
	<path class="path1" d="M337.318 499.953c-102.4 0-180.706-78.306-180.706-174.682s78.306-168.659 180.706-168.659c102.4 0 180.706 78.306 180.706 168.659 0 96.376-84.329 174.682-180.706 174.682zM337.318 12.047c-186.729 0-337.318 138.541-337.318 313.224 0 301.176 337.318 692.706 337.318 692.706s337.318-391.529 337.318-692.706c0-174.682-150.588-313.224-337.318-313.224z"></path>
</symbol>
<symbol id="icon-icon_principalname" viewBox="0 0 910 1024">
	<title>icon_principalname</title>
	<path class="path1" d="M665.6 261.689c0-130.844-108.089-233.244-238.933-233.244-125.156 0-233.244 102.4-233.244 233.244s102.4 233.244 233.244 233.244c130.844 0 238.933-102.4 238.933-233.244zM859.022 807.822c0-136.533-34.133-347.022-210.489-347.022-22.756-5.689-102.4 79.644-221.867 79.644s-199.111-85.333-216.178-85.333c-176.356 0-210.489 216.178-210.489 352.711 0 96.711 68.267 159.289 164.978 159.289h534.756c91.022 0 159.289-62.578 159.289-159.289z"></path>
</symbol>
<symbol id="icon-icon_website" viewBox="0 0 1472 1024">
	<title>icon_website</title>
	<path class="path1" d="M1448 480.512c0-105.088-62.976-178.432-170.432-177.28-28.416-22.144-64.832-34.112-101.184-34.112-7.936 0-16.448 0.512-24.448 1.728-21.056-11.904-43.776-19.264-67.648-21.056v-96c0-79.552-66.432-145.472-145.984-145.472-78.464 0-144.896 67.008-144.896 145.472v212.48c-23.296-8.448-47.744-12.48-72.704-12.48-96.064 0-145.472 73.344-145.472 163.712 0 76.16 97.088 100.544 150.016 133.504 26.688 17.024 49.984 36.352 73.28 56.832 18.816 16.448 67.648 55.104 67.648 82.432v163.648c0.064 40.384 32.384 72.768 72.768 72.768h363.776c40.256 0 72.64-32.384 72.64-72.768v-163.648c0-35.904 21.056-92.096 33.536-126.72 21.504-59.2 39.104-119.36 39.104-183.040zM1375.232 483.392c0.064 110.272-72.64 207.424-72.64 306.88v18.112h-363.712v-18.112c0-60.224-51.136-100.608-92.608-137.024-26.112-23.232-52.224-44.8-82.432-63.616-11.904-7.36-24.448-14.208-36.928-20.992-13.056-6.272-79.040-35.264-79.040-51.136 0-48.32 18.176-90.944 72.832-90.944 72.704 0 109.632 54.592 145.472 54.592v-327.36c0-38.080 34.048-72.768 72.704-72.768 39.168 0 72.832 33.536 72.832 72.768v188.032c13.568-11.904 40.256-19.84 58.496-19.84 26.688 0 49.344 10.752 67.648 30.080 11.84-6.784 25.536-10.24 39.168-10.24 26.112 0 58.496 13.12 71.552 36.992 10.24-1.792 21.056-2.88 31.808-2.88 68.8 0.064 94.912 43.264 94.848 107.456v0zM1302.592 917.504c0 19.968-16.512 36.352-36.352 36.352s-36.48-16.448-36.48-36.352c0-19.904 16.64-36.352 36.48-36.352s36.352 16.512 36.352 36.352z"></path>
</symbol>
<symbol id="icon-icon_faxnumber" viewBox="0 0 1472 1024">
	<title>icon_faxnumber</title>
	<path class="path1" d="M1448 561.792c0-69.376-57.344-126.848-126.656-126.848h-42.304v-169.024c0-35.008-19.84-83.136-44.864-108.288l-100.288-100.352c-25.152-25.024-73.472-44.928-108.416-44.928h-443.84c-34.944 0-63.296 28.48-63.296 63.424v359.168h-42.24c-69.376 0.064-126.784 57.472-126.784 126.848v274.624c0 11.328 9.856 21.184 21.184 21.184h147.904v105.664c0 34.944 28.352 63.36 63.296 63.36h633.984c34.944 0 63.296-28.416 63.296-63.36v-105.664h147.968c11.2 0 21.056-9.856 21.056-21.184v-274.624zM1363.52 561.792c0 23.104-19.2 42.24-42.24 42.24-23.232 0-42.304-19.136-42.304-42.24 0-23.168 19.072-42.304 42.304-42.304 23.040 0.064 42.24 19.2 42.24 42.304zM602.752 519.552v-422.656h422.656v105.664c0 34.944 28.352 63.36 63.36 63.36h105.728v253.568h-591.744zM602.752 773.056h591.68v169.088h-591.68v-169.088z"></path>
</symbol>
<symbol id="icon-icon_phonenumber" viewBox="0 0 1472 1024">
	<title>icon_phonenumber</title>
	<path class="path1" d="M1103.616 564.288c-72.512 106.624-159.296 211.264-207.424 178.624-69.248-47.104-114.88-91.776-222.848 35.648-108.096 127.232 3.648 177.728 70.272 222.976 77.312 52.608 307.264-56.128 501.312-341.248 194.176-282.816 208.128-538.496 130.944-591.104-66.816-45.312-152.64-131.072-230.72 18.432-78.72 147.328-22.592 173.696 46.592 220.864 47.936 32.704-17.408 151.872-88.128 255.808z"></path>
</symbol>
<symbol id="icon-icon_schools" viewBox="0 0 1472 1024">
	<title>icon_schools</title>
	<path class="path1" d="M1077.568 344.128v-125.312h50.176c17.984 0 21.504-7.68 9.536-18.176l-239.040-192.32c-13.12-9.536-33.408-9.536-45.504 0l-238.912 192.32c-13.184 10.496-8.448 18.176 9.536 18.176h50.24v124.032l-355.712 286.272c-25.472 22.464-17.856 38.656 20.352 38.656h106.816v315.584c0 22.4 2.496 40.704 53.376 40.704h246.464v-220.352h259.776v220.288h259.136c40.704 0 40.704-18.304 40.704-40.704v-315.584h106.88c38.144 0 48.32-16.256 20.288-38.656l-354.112-284.928z"></path>
	<path class="path2" d="M0 112.832l260.8 91.392v-171.328z"></path>
	<path class="path3" d="M278.784 32.896h123.84v991.104h-123.84v-991.104z"></path>
</symbol>


</defs>
</svg>
